<?xml version="1.0" encoding="utf-8"?>
<!-- Generator: Adobe Illustrator 27.8.0, SVG Export Plug-In . SVG Version: 6.00 Build 0)  -->
<svg version="1.1" id="Ebene_1" xmlns="http://www.w3.org/2000/svg" xmlns:xlink="http://www.w3.org/1999/xlink" x="0px" y="0px"
	 viewBox="0 0 841.89 595.28" style="enable-background:new 0 0 841.89 595.28;" xml:space="preserve">
<style type="text/css">
	.st0{fill:#9AB5D8;}
	.st1{fill:#FFFFFF;}
	.st2{font-family:'BarlowCondensed-Regular';}
	.st3{font-size:14.5845px;}
	.st4{font-size:14.5844px;}
	.st5{font-size:14.5846px;}
	.st6{font-family:'BarlowCondensed-Bold';}
	.st7{fill:#B56646;}
</style>
<path class="st0" d="M307.62,522.39c-0.41,0-0.84-0.07-1.25-0.21c-2-0.69-3.07-2.88-2.38-4.88l46.23-134.1l99.89-142.88l62.8-140.9
	c0.86-1.94,3.13-2.8,5.07-1.94c1.94,0.86,2.81,3.13,1.94,5.07l-63.09,141.58l-0.21,0.3l-99.48,142.3L311.25,519.8
	C310.7,521.39,309.21,522.39,307.62,522.39z"/>
<g>
	<path class="st0" d="M605.45,336.63c-0.46,0-0.93-0.08-1.39-0.26l-55.82-21.71l-70.79-56.94c-37.37-19.55-93.85-48.72-101.08-51.52
		c-6.03,0.96-47.43,10.39-74.79,16.72c-2.07,0.48-4.13-0.81-4.6-2.87c-0.48-2.07,0.81-4.13,2.87-4.6
		c22.05-5.11,73.69-16.99,76.86-16.99c1.2,0,4.01,0,104.64,52.63l0.63,0.41l70.16,56.43l54.72,21.28c1.98,0.77,2.95,2.99,2.19,4.97
		C608.44,335.7,606.99,336.63,605.45,336.63z"/>
</g>
<path class="st0" d="M398.2,214.58c-0.73,0-1.37-0.52-1.51-1.26l-29.17-161.2c-0.15-0.83,0.4-1.63,1.24-1.78
	c0.84-0.16,1.63,0.4,1.78,1.24l29.17,161.2c0.15,0.83-0.4,1.63-1.24,1.78C398.38,214.57,398.29,214.58,398.2,214.58z"/>
<path class="st0" d="M412.21,481.7c-0.15,0-0.29-0.02-0.44-0.06c-0.81-0.24-1.27-1.1-1.03-1.91l45.68-152.91l-27.14-50.1
	c-0.4-0.75-0.13-1.68,0.62-2.08c0.75-0.4,1.68-0.13,2.08,0.62l27.75,51.22l-0.18,0.61l-45.86,153.52
	C413.48,481.27,412.87,481.7,412.21,481.7z"/>
<path class="st0" d="M399.73,318.97c-0.34,0-0.68-0.11-0.96-0.34l-23.03-18.42c-0.66-0.52-0.77-1.48-0.25-2.14l32.24-41.45
	c0.52-0.67,1.49-0.79,2.16-0.27c0.67,0.52,0.79,1.49,0.27,2.15l-31.31,40.26l21.85,17.48c0.66,0.53,0.77,1.5,0.24,2.16
	C400.63,318.77,400.18,318.97,399.73,318.97z"/>
<path class="st0" d="M336.79,437.89c-0.29,0-0.59-0.08-0.85-0.26l-13.82-9.21c-0.71-0.47-0.9-1.42-0.43-2.13
	c0.47-0.7,1.42-0.9,2.13-0.43l13.82,9.21c0.71,0.47,0.9,1.42,0.43,2.13C337.77,437.65,337.28,437.89,336.79,437.89z"/>
<path class="st0" d="M378.24,346.6c-0.34,0-0.68-0.11-0.96-0.34l-7.68-6.14c-0.66-0.53-0.77-1.5-0.24-2.16
	c0.53-0.66,1.5-0.77,2.16-0.24l7.68,6.14c0.66,0.53,0.77,1.5,0.24,2.16C379.13,346.41,378.69,346.6,378.24,346.6z"/>
<path class="st0" d="M523.7,506.27c-0.42,0-0.85-0.09-1.26-0.27l-104.71-47.22l-212.49,33.63c-1.67,0.26-3.25-0.88-3.51-2.55
	c-0.26-1.67,0.88-3.25,2.55-3.51l214.3-33.92l106.38,47.97c1.55,0.7,2.23,2.52,1.54,4.06C525.99,505.59,524.87,506.27,523.7,506.27z
	"/>
<path class="st0" d="M455,472.49c-0.13,0-0.27-0.02-0.4-0.05c-0.82-0.22-1.3-1.07-1.08-1.88l23.03-84.44
	c0.1-0.35,0.31-0.65,0.61-0.86l19.27-13.34l-1.46-53.93l-36.43,11.66c-0.07,0.02-0.13,0.04-0.2,0.05l-25.23,4.45l-18.12,49.83
	c-0.15,0.41-0.47,0.74-0.87,0.9l-22.04,8.82l1.51,66.48c0.02,0.85-0.65,1.55-1.5,1.57c-0.84-0.01-1.55-0.65-1.57-1.5l-1.54-67.55
	c-0.01-0.64,0.37-1.22,0.96-1.46l22.39-8.96l18.19-50.02c0.19-0.52,0.64-0.89,1.18-0.99l26-4.59l38.28-12.25
	c0.46-0.15,0.96-0.07,1.36,0.21c0.39,0.28,0.63,0.73,0.65,1.21l1.54,56.8c0.01,0.52-0.24,1.01-0.66,1.3l-19.5,13.5l-22.88,83.9
	C456.29,472.04,455.68,472.49,455,472.49z"/>
<g>
	<path class="st0" d="M441.18,150.86c-13.97,0-25.33-11.36-25.33-25.33s11.36-25.33,25.33-25.33c13.97,0,25.33,11.36,25.33,25.33
		S455.15,150.86,441.18,150.86z M441.18,101.74c-13.12,0-23.8,10.67-23.8,23.8s10.67,23.8,23.8,23.8s23.8-10.67,23.8-23.8
		S454.3,101.74,441.18,101.74z"/>
</g>
<polygon class="st0" points="435.55,125.31 446.82,125.31 441.18,105.58 "/>
<g>
	<path class="st0" d="M441.18,145.63l-5.6-19.59h11.19L441.18,145.63z M436.6,126.81l4.58,16.02l4.58-16.02H436.6z"/>
</g>
<text transform="matrix(0.7771 0.6293 -0.6293 0.7771 493.0345 250.2643)" class="st1 st2 st3">Am Luisenhof</text>
<text transform="matrix(0.2588 -0.9659 0.9659 0.2588 473.8121 464.6785)"><tspan x="0" y="0" class="st1 st2 st3">Buchne</tspan><tspan x="36.9" y="0" class="st1 st2 st3">r</tspan><tspan x="41.33" y="0" class="st1 st2 st3">w</tspan><tspan x="49.32" y="0" class="st1 st2 st3">eg</tspan></text>
<text transform="matrix(0.2756 -0.9613 0.9613 0.2756 443.7436 439.7955)"><tspan x="0" y="0" class="st1 st2 st3">Berner Hee</tspan><tspan x="54.79" y="0" class="st1 st2 st3">r</tspan><tspan x="59.24" y="0" class="st1 st2 st3">w</tspan><tspan x="67.23" y="0" class="st1 st2 st3">eg</tspan></text>
<text transform="matrix(0.9877 -0.1564 0.1564 0.9877 228.7281 505.5074)"><tspan x="0" y="0" class="st1 st2 st4">E</tspan><tspan x="6.17" y="0" class="st1 st2 st4">c</tspan><tspan x="12.03" y="0" class="st1 st2 st4">k</tspan><tspan x="17.81" y="0" class="st1 st2 st4">er</tspan><tspan x="28" y="0" class="st1 st2 st4">k</tspan><tspan x="33.76" y="0" class="st1 st2 st4">oppel</tspan></text>
<text transform="matrix(-0.1737 -0.9848 0.9848 -0.1737 381.3181 187.0328)"><tspan x="0" y="0" class="st1 st2 st3">A</tspan><tspan x="5.91" y="0" class="st1 st2 st3">ugust-K</tspan><tspan x="44.8" y="0" class="st1 st2 st3">r</tspan><tspan x="49.02" y="0" class="st1 st2 st3">ogmann-St</tspan><tspan x="103.46" y="0" class="st1 st2 st3">r</tspan><tspan x="107.71" y="0" class="st1 st2 st3">aße</tspan></text>
<text transform="matrix(1 0 0 1 402.8021 177.3468)"><tspan x="0" y="0" class="st1 st2 st3">F</tspan><tspan x="5.73" y="0" class="st1 st2 st3">armsen</tspan></text>
<text transform="matrix(0.3987 -0.9171 0.9171 0.3987 484.5663 228.9712)"><tspan x="0" y="0" class="st1 st2 st3">F</tspan><tspan x="5.53" y="0" class="st1 st2 st3">riedrich-Ebert Damm</tspan></text>
<text transform="matrix(0.5878 -0.809 0.809 0.5878 370.971 394.9814)"><tspan x="0" y="0" class="st1 st2 st5">F</tspan><tspan x="5.53" y="0" class="st1 st2 st5">riedrich-Ebert Damm</tspan></text>
<text transform="matrix(1 0 0 1 189.5941 378.0754)"><tspan x="0" y="0" class="st1 st6 st3">F</tspan><tspan x="6.23" y="0" class="st1 st6 st3">riedrich</tspan><tspan x="52.43" y="0" class="st1 st6 st3">-</tspan><tspan x="57.83" y="0" class="st1 st6 st3">Ebert</tspan><tspan x="88.95" y="0" class="st1 st6 st3"> D</tspan><tspan x="99.95" y="0" class="st1 st6 st3">am</tspan><tspan x="117.46" y="0" class="st1 st6 st3">m </tspan></text>
<rect x="412.01" y="191.55" class="st0" width="18.42" height="18.42"/>
<rect x="344.46" y="337.39" class="st0" width="18.42" height="18.42"/>
<rect x="316.83" y="396.28" class="st0" width="18.42" height="18.42"/>
<g>
	<path class="st1" d="M417.28,201.43c0,1.11,0.06,1.94,0.19,2.51c0.09,0.38,0.28,0.75,0.56,1.1c0.28,0.35,0.67,0.63,1.16,0.85
		c0.49,0.22,1.2,0.33,2.15,0.33c0.78,0,1.42-0.1,1.9-0.3c0.49-0.2,0.87-0.47,1.16-0.81c0.29-0.34,0.49-0.75,0.6-1.24
		c0.11-0.49,0.16-1.33,0.16-2.52v-5.2h-2v5.47c0,0.78-0.03,1.34-0.09,1.68c-0.06,0.34-0.23,0.62-0.52,0.85
		c-0.29,0.23-0.72,0.35-1.28,0.35c-0.56,0-1-0.12-1.32-0.37c-0.32-0.24-0.52-0.57-0.61-0.97c-0.05-0.25-0.07-0.8-0.07-1.65v-5.36h-2
		V201.43z"/>
	<path class="st1" d="M353.02,342.69c0.96,0,1.6,0.03,1.92,0.09c0.43,0.08,0.79,0.27,1.07,0.58c0.28,0.31,0.42,0.71,0.42,1.19
		c0,0.39-0.1,0.73-0.3,1.03c-0.2,0.29-0.48,0.51-0.83,0.65c-0.35,0.14-1.05,0.21-2.1,0.21h-1.46v-3.74H353.02z M351.73,353.65v-4.97
		h1.74c1.21,0,2.13-0.06,2.76-0.19c0.47-0.1,0.93-0.31,1.38-0.63c0.45-0.31,0.83-0.75,1.12-1.3c0.29-0.55,0.44-1.23,0.44-2.04
		c0-1.05-0.25-1.91-0.76-2.57c-0.51-0.66-1.14-1.09-1.9-1.29c-0.49-0.13-1.55-0.2-3.17-0.2h-4.27v13.19H351.73z"/>
	<path class="st1" d="M325.39,401.59c0.96,0,1.6,0.03,1.92,0.09c0.43,0.08,0.79,0.27,1.07,0.58c0.28,0.31,0.42,0.71,0.42,1.19
		c0,0.39-0.1,0.73-0.3,1.03c-0.2,0.29-0.48,0.51-0.83,0.65c-0.35,0.14-1.05,0.21-2.1,0.21h-1.46v-3.74H325.39z M324.1,412.54v-4.97
		h1.74c1.21,0,2.13-0.06,2.76-0.19c0.47-0.1,0.93-0.31,1.38-0.63c0.45-0.31,0.83-0.75,1.12-1.3c0.29-0.55,0.44-1.23,0.44-2.04
		c0-1.05-0.25-1.91-0.76-2.57c-0.51-0.66-1.14-1.09-1.9-1.29c-0.49-0.13-1.55-0.2-3.17-0.2h-4.27v13.19H324.1z"/>
	<path class="st1" d="M334.66,384.96c-6.34,0-11.5-5.16-11.5-11.5c0-6.34,5.16-11.5,11.5-11.5c6.34,0,11.5,5.16,11.5,11.5
		C346.16,379.8,341,384.96,334.66,384.96 M334.66,363.14c-5.69,0-10.32,4.63-10.32,10.32s4.63,10.32,10.32,10.32
		s10.32-4.63,10.32-10.32S340.35,363.14,334.66,363.14"/>
	<path class="st1" d="M330,372.03c-1.65,5.78,6.76,3.98,6.96,5.97c0.1,0.92-0.98,1.38-1.84,1.38c-1.44,0-3.36-0.73-3.73-2.83h-1.54
		v4.15h1.43l0.36-0.76c0.93,0.58,2.42,0.93,3.53,0.93c2.26,0,4.71-0.73,4.71-3.38c0-5.29-8.27-1.53-9.87-5.47"/>
	<path class="st7" d="M329.92,370.5c1.44,3.54,8.24,0.88,9.62,4.12c0,0.01,0.01,0.01,0.01,0.02c1.65-5.78-6.58-4-6.95-5.97
		c-0.2-1.06,0.89-1.39,1.84-1.39c1.44,0,2.97,0.95,3.21,2.64h1.51v-3.96h-1.36l-0.29,0.76c-0.93-0.58-2-0.93-3.12-0.93
		C328.12,365.78,329.92,370.5,329.92,370.5"/>
</g>
</svg>
