<?xml version="1.0" encoding="utf-8"?>
<!-- Generator: Adobe Illustrator 16.0.0, SVG Export Plug-In . SVG Version: 6.00 Build 0)  -->
<!DOCTYPE svg PUBLIC "-//W3C//DTD SVG 1.1//EN" "http://www.w3.org/Graphics/SVG/1.1/DTD/svg11.dtd">
<svg version="1.1" id="Layer_1" xmlns="http://www.w3.org/2000/svg" xmlns:xlink="http://www.w3.org/1999/xlink" x="0px" y="0px"
	 width="100px" height="57.73px" viewBox="0 0 100 57.73" enable-background="new 0 0 100 57.73" xml:space="preserve">
<g>
	<text transform="matrix(1 0 0 1 8 17.6445)" fill="#9AB5D7" font-family="'MyriadPro-Regular'" font-size="16">?</text>
	<g>
		<defs>
			<rect id="SVGID_1_" width="100" height="57.726"/>
		</defs>
		<clipPath id="SVGID_2_">
			<use xlink:href="#SVGID_1_"  overflow="visible"/>
		</clipPath>
		<path clip-path="url(#SVGID_2_)" fill="none" stroke="#9AB5D7" stroke-width="1.3" stroke-linejoin="round" d="M61.722,48.638
			h-6.966c-1.434,0-2.595-1.156-2.595-2.582v-3.273c0-1.428,1.161-2.582,2.595-2.582v-7.959c0-0.941,0.375-1.846,1.044-2.512
			l0.086-0.084c0.838-0.834,1.974-1.303,3.159-1.303h3.157c0.557,0,1.104-0.131,1.599-0.384l16.165-8.251h10.813 M87.483,31.745
			H70.942l-3.08-1.949 M1.075,31.745H15.27l5.427-1.949 M80.773,48.638c0,4.66-3.795,8.438-8.477,8.438s-8.477-3.777-8.477-8.438
			s3.795-8.438,8.477-8.438S80.773,43.978,80.773,48.638z M37.216,48.638c0,4.66-3.795,8.438-8.476,8.438
			c-4.681,0-8.476-3.777-8.476-8.438S24.06,40.2,28.741,40.2C33.421,40.2,37.216,43.978,37.216,48.638z M83.009,48.638h16.992
			 M1.075,48.638h16.992 M39.271,48.638h5.679c0.801,0,1.45-0.646,1.45-1.443v-7.922v-1.641c0-2.506-1.787-4.66-4.26-5.133
			l-16.031-3.07c-1.284-0.246-2.509-0.734-3.607-1.442l-4.256-2.741"/>
		<polyline clip-path="url(#SVGID_2_)" fill="none" stroke="#CD6743" stroke-width="1.3" stroke-linejoin="round" points="
			33.761,25.647 29.032,14.612 38.564,17.765 42.317,7.256 45.544,16.452 61.049,0.65 56.129,16.639 64.461,17.39 56.054,24.146 		
			"/>
		
			<circle clip-path="url(#SVGID_2_)" fill="none" stroke="#9AB5D7" stroke-width="1.139" stroke-linejoin="round" cx="11.52" cy="16.164" r="10.95"/>
	</g>
</g>
</svg>
