<?xml version="1.0" encoding="utf-8"?>
<!-- Generator: Adobe Illustrator 16.0.0, SVG Export Plug-In . SVG Version: 6.00 Build 0)  -->
<!DOCTYPE svg PUBLIC "-//W3C//DTD SVG 1.1//EN" "http://www.w3.org/Graphics/SVG/1.1/DTD/svg11.dtd">
<svg version="1.1" id="Layer_1" xmlns="http://www.w3.org/2000/svg" xmlns:xlink="http://www.w3.org/1999/xlink" x="0px" y="0px"
	 width="65.95px" height="49.72px" viewBox="0 0 65.95 49.72" enable-background="new 0 0 65.95 49.72" xml:space="preserve">
<g>
	<g>
		<defs>
			<rect id="SVGID_1_" width="65.951" height="49.724"/>
		</defs>
		<clipPath id="SVGID_2_">
			<use xlink:href="#SVGID_1_"  overflow="visible"/>
		</clipPath>
		<path clip-path="url(#SVGID_2_)" fill="none" stroke="#9BB6D8" stroke-width="1.221" stroke-miterlimit="10" d="M19.509,40.28
			H4.192c-1.978,0-3.582-1.604-3.582-3.582V4.192c0-1.979,1.604-3.582,3.582-3.582h19.747c1.978,0,3.582,1.603,3.582,3.582v16.414"
			/>
	</g>
	<path fill="none" stroke="#9BB6D8" stroke-width="1.305" stroke-miterlimit="10" d="M4.531,19.891l8.229,0.011 M4.155,13.726h18.09
		 M4.155,7.553h18.09"/>
	<g>
		<defs>
			<rect id="SVGID_3_" width="65.951" height="49.724"/>
		</defs>
		<clipPath id="SVGID_4_">
			<use xlink:href="#SVGID_3_"  overflow="visible"/>
		</clipPath>
		<path clip-path="url(#SVGID_4_)" fill="none" stroke="#9BB6D8" stroke-width="1.221" stroke-miterlimit="10" d="M53.281,29.108
			h3.883c0.304,0,0.594,0.123,0.807,0.338l1.64,1.668c0.703,0.715,0.195,1.924-0.808,1.924h-5.521c-0.625,0-1.132-0.506-1.132-1.131
			v-1.668C52.149,29.614,52.656,29.108,53.281,29.108z M30.327,29.108h-3.884c-0.303,0-0.594,0.123-0.807,0.338l-1.639,1.668
			c-0.703,0.715-0.196,1.924,0.807,1.924h5.523c0.625,0,1.131-0.506,1.131-1.131v-1.668C31.458,29.614,30.952,29.108,30.327,29.108z
			 M24.373,21.215v4.149h-4.441c-0.938,0-1.698-0.929-1.698-2.075s0.76-2.075,1.698-2.075L24.373,21.215
			C24.373,21.214,24.373,21.214,24.373,21.215z M59.202,21.11v4.15h4.44c0.938,0,1.698-0.929,1.698-2.076
			c0-1.146-0.76-2.075-1.698-2.075L59.202,21.11C59.202,21.109,59.202,21.11,59.202,21.11z M25.337,25.364l3.194-7.061
			c0.598-1.323,1.856-2.227,3.301-2.371l20.342-0.083c1.548,0.136,2.883,1.143,3.44,2.593l2.658,6.922 M30.544,42.28v-1.852
			c0-2.604,2.138-4.713,4.775-4.713h12.727c2.637,0,4.774,2.109,4.774,4.713v1.852 M54.352,42.28v4.348
			c0,1.373,1.112,2.484,2.485,2.484h4.382c1.372,0,2.485-1.111,2.485-2.484v-7.205 M19.697,39.423v7.205
			c0,1.373,1.113,2.484,2.485,2.484h4.382c1.373,0,2.485-1.111,2.485-2.484V42.28 M60.846,42.28H22.555
			c-1.578,0-2.858-1.279-2.858-2.857v-7.637c0-0.758,0.301-1.484,0.837-2.02l3.565-3.564c0.536-0.536,1.263-0.838,2.021-0.838
			h31.066c0.759,0,1.485,0.302,2.021,0.838l3.399,3.398c0.517,0.516,0.815,1.211,0.836,1.941l0.26,7.801
			C63.748,40.952,62.456,42.28,60.846,42.28z"/>
	</g>
</g>
</svg>
