<?xml version="1.0" encoding="utf-8"?>
<!-- Generator: Adobe Illustrator 16.0.0, SVG Export Plug-In . SVG Version: 6.00 Build 0)  -->
<!DOCTYPE svg PUBLIC "-//W3C//DTD SVG 1.1//EN" "http://www.w3.org/Graphics/SVG/1.1/DTD/svg11.dtd">
<svg version="1.1" id="Layer_1" xmlns="http://www.w3.org/2000/svg" xmlns:xlink="http://www.w3.org/1999/xlink" x="0px" y="0px"
	 width="29.3px" height="29.3px" viewBox="0 0 29.3 29.3" enable-background="new 0 0 29.3 29.3" xml:space="preserve">
<g>
	<g>
		<defs>
			<rect id="SVGID_1_" width="29.295" height="29.295"/>
		</defs>
		<clipPath id="SVGID_2_">
			<use xlink:href="#SVGID_1_"  overflow="visible"/>
		</clipPath>
		<path clip-path="url(#SVGID_2_)" fill="none" stroke="#CD6743" stroke-width="1.22" stroke-miterlimit="10" d="M0.609,14.631
			c0,1.93,0.365,3.749,1.096,5.455c0.729,1.707,1.735,3.201,3.017,4.483s2.772,2.288,4.477,3.02c1.704,0.73,3.525,1.096,5.462,1.096
			s3.753-0.364,5.446-1.095c1.693-0.73,3.181-1.736,4.464-3.016c1.281-1.281,2.287-2.774,3.018-4.479
			c0.732-1.703,1.097-3.523,1.097-5.462c0-1.937-0.364-3.752-1.095-5.444c-0.729-1.693-1.736-3.182-3.016-4.464
			c-1.281-1.281-2.771-2.289-4.469-3.02c-1.697-0.731-3.512-1.096-5.442-1.096s-3.748,0.364-5.455,1.095
			C7.502,2.435,6.008,3.441,4.726,4.722c-1.282,1.281-2.289,2.771-3.02,4.468C0.975,10.887,0.609,12.701,0.609,14.631z"/>
	</g>
	<line fill="none" stroke="#CD6743" stroke-width="1.22" x1="14.647" y1="21.678" x2="14.647" y2="8.678"/>
	<polyline fill="none" stroke="#CD6743" stroke-width="1.22" points="19.647,13.324 14.647,8.324 9.647,13.324 	"/>
</g>
</svg>
