<?xml version="1.0" encoding="utf-8"?>
<!-- Generator: Adobe Illustrator 16.0.0, SVG Export Plug-In . SVG Version: 6.00 Build 0)  -->
<!DOCTYPE svg PUBLIC "-//W3C//DTD SVG 1.1//EN" "http://www.w3.org/Graphics/SVG/1.1/DTD/svg11.dtd">
<svg version="1.1" id="Layer_1" xmlns="http://www.w3.org/2000/svg" xmlns:xlink="http://www.w3.org/1999/xlink" x="0px" y="0px"
	 width="29.3px" height="29.3px" viewBox="0 0 29.3 29.3" enable-background="new 0 0 29.3 29.3" xml:space="preserve">
<g>
	<g>
		<defs>
			<rect id="SVGID_1_" width="29.295" height="29.295"/>
		</defs>
		<clipPath id="SVGID_2_">
			<use xlink:href="#SVGID_1_"  overflow="visible"/>
		</clipPath>
		<path clip-path="url(#SVGID_2_)" fill="none" stroke="#CD6743" stroke-width="1.22" stroke-miterlimit="10" d="M28.686,14.664
			c0-1.93-0.365-3.749-1.096-5.455c-0.729-1.707-1.735-3.201-3.017-4.484c-1.281-1.282-2.772-2.288-4.477-3.019
			S16.571,0.61,14.634,0.61s-3.753,0.365-5.446,1.095c-1.693,0.73-3.18,1.736-4.463,3.016C3.443,6.002,2.438,7.495,1.707,9.199
			c-0.731,1.704-1.096,3.524-1.096,5.462c0,1.937,0.365,3.752,1.095,5.444c0.73,1.693,1.736,3.182,3.016,4.464
			c1.281,1.281,2.771,2.289,4.468,3.02c1.698,0.731,3.512,1.096,5.442,1.096s3.748-0.364,5.455-1.095
			c1.707-0.729,3.201-1.736,4.483-3.017c1.282-1.281,2.289-2.771,3.02-4.468C28.32,18.408,28.686,16.594,28.686,14.664z"/>
	</g>
	<line fill="none" stroke="#CD6743" stroke-width="1.22" x1="14.647" y1="7.617" x2="14.647" y2="20.617"/>
	<polyline fill="none" stroke="#CD6743" stroke-width="1.22" points="9.647,15.971 14.647,20.971 19.647,15.971 	"/>
</g>
</svg>
