<?xml version="1.0" encoding="utf-8"?>
<!-- Generator: Adobe Illustrator 16.0.0, SVG Export Plug-In . SVG Version: 6.00 Build 0)  -->
<!DOCTYPE svg PUBLIC "-//W3C//DTD SVG 1.1//EN" "http://www.w3.org/Graphics/SVG/1.1/DTD/svg11.dtd">
<svg version="1.1" id="Layer_1" xmlns="http://www.w3.org/2000/svg" xmlns:xlink="http://www.w3.org/1999/xlink" x="0px" y="0px"
	 width="16.94px" height="16.94px" viewBox="0 0 16.94 16.94" enable-background="new 0 0 16.94 16.94" xml:space="preserve">
<g>
	<defs>
		<rect id="SVGID_1_" width="16.94" height="16.939"/>
	</defs>
	<clipPath id="SVGID_2_">
		<use xlink:href="#SVGID_1_"  overflow="visible"/>
	</clipPath>
	<path clip-path="url(#SVGID_2_)" fill="#CD6743" d="M8.47,16.152c2.133,0,3.948-0.748,5.441-2.242
		c1.494-1.492,2.241-3.307,2.241-5.44s-0.747-3.948-2.241-5.441c-1.493-1.494-3.308-2.241-5.441-2.241
		c-2.134,0-3.948,0.747-5.441,2.241C1.535,4.522,0.788,6.336,0.788,8.47s0.747,3.948,2.241,5.44
		C4.522,15.404,6.336,16.152,8.47,16.152 M8.48,16.939c-1.165,0-2.262-0.219-3.292-0.66c-1.029-0.439-1.931-1.047-2.705-1.82
		c-0.773-0.773-1.38-1.674-1.821-2.701S0,9.631,0,8.462s0.22-2.264,0.661-3.286c0.44-1.021,1.047-1.919,1.82-2.693
		c0.773-0.773,1.673-1.38,2.701-1.821C6.211,0.221,7.309,0,8.478,0c1.169,0,2.264,0.22,3.286,0.661
		c1.021,0.44,1.919,1.047,2.693,1.82c0.773,0.773,1.381,1.671,1.822,2.696c0.44,1.024,0.661,2.118,0.661,3.283
		s-0.221,2.263-0.661,3.292s-1.047,1.932-1.82,2.705s-1.671,1.381-2.696,1.822C10.739,16.721,9.645,16.939,8.48,16.939 M8.47,9.561
		l2.864-2.864L10.76,6.123L8.864,8.057V3.644H8.076v4.413L6.18,6.123L5.606,6.697L8.47,9.561z M4.235,12.705h8.47v-0.789h-8.47
		V12.705z"/>
</g>
</svg>
