<?xml version="1.0" encoding="utf-8"?>
<!-- Generator: Adobe Illustrator 16.0.0, SVG Export Plug-In . SVG Version: 6.00 Build 0)  -->
<!DOCTYPE svg PUBLIC "-//W3C//DTD SVG 1.1//EN" "http://www.w3.org/Graphics/SVG/1.1/DTD/svg11.dtd">
<svg version="1.1" id="Layer_1" xmlns="http://www.w3.org/2000/svg" xmlns:xlink="http://www.w3.org/1999/xlink" x="0px" y="0px"
	 width="31.58px" height="24.32px" viewBox="0 0 31.58 24.32" enable-background="new 0 0 31.58 24.32" xml:space="preserve">
<g>
	<defs>
		<rect id="SVGID_1_" width="31.579" height="24.32"/>
	</defs>
	<clipPath id="SVGID_2_">
		<use xlink:href="#SVGID_1_"  overflow="visible"/>
	</clipPath>
	<path clip-path="url(#SVGID_2_)" fill="#9BB6D8" d="M1.271,2.269V1.271V2.269v19.329c0,0.424,0.136,0.771,0.408,1.043
		c0.273,0.271,0.621,0.408,1.044,0.408H1.271v-0.408v-1.043V2.269z M15.79,10.345l13.793-9.074H1.997L15.79,10.345z M15.79,11.888
		L1.271,2.269v19.329c0,0.424,0.136,0.771,0.408,1.043c0.273,0.271,0.621,0.408,1.044,0.408h26.135c0.423,0,0.771-0.137,1.043-0.408
		s0.409-0.619,0.409-1.043V2.269L15.79,11.888z M2.722,24.32c-0.786,0-1.437-0.258-1.951-0.771C0.257,23.033,0,22.383,0,21.598
		V2.723c0-0.787,0.257-1.437,0.771-1.951C1.285,0.257,1.937,0,2.722,0h26.135c0.786,0,1.436,0.257,1.951,0.772
		c0.514,0.514,0.771,1.164,0.771,1.951v18.875c0,0.785-0.257,1.436-0.771,1.951c-0.516,0.514-1.165,0.771-1.951,0.771H2.722z"/>
</g>
</svg>
