<?xml version="1.0" encoding="utf-8"?>
<!-- Generator: Adobe Illustrator 16.0.0, SVG Export Plug-In . SVG Version: 6.00 Build 0)  -->
<!DOCTYPE svg PUBLIC "-//W3C//DTD SVG 1.1//EN" "http://www.w3.org/Graphics/SVG/1.1/DTD/svg11.dtd">
<svg version="1.1" id="Layer_1" xmlns="http://www.w3.org/2000/svg" xmlns:xlink="http://www.w3.org/1999/xlink" x="0px" y="0px"
	 width="20.77px" height="16.94px" viewBox="0 0 20.77 16.94" enable-background="new 0 0 20.77 16.94" xml:space="preserve">
<g>
	<defs>
		<rect id="SVGID_1_" width="20.773" height="16.94"/>
	</defs>
	<clipPath id="SVGID_2_">
		<use xlink:href="#SVGID_1_"  overflow="visible"/>
	</clipPath>
	<path clip-path="url(#SVGID_2_)" fill="#9AB5D7" d="M7.054,13.22h4.442V7.666H7.054V13.22z M17.052,13.22
		c0.314,0,0.579-0.107,0.792-0.32s0.318-0.477,0.318-0.791s-0.105-0.578-0.318-0.791s-0.478-0.32-0.792-0.32
		s-0.578,0.107-0.791,0.32s-0.32,0.477-0.32,0.791s0.107,0.578,0.32,0.791S16.737,13.22,17.052,13.22 M13.72,13.22
		c0.313,0,0.578-0.107,0.791-0.32s0.319-0.477,0.319-0.791s-0.106-0.578-0.319-0.791s-0.478-0.32-0.791-0.32
		c-0.315,0-0.579,0.107-0.792,0.32s-0.319,0.477-0.319,0.791s0.106,0.578,0.319,0.791S13.404,13.22,13.72,13.22 M17.052,9.888
		c0.314,0,0.579-0.107,0.792-0.32s0.318-0.477,0.318-0.791c0-0.315-0.105-0.578-0.318-0.792c-0.213-0.213-0.478-0.32-0.792-0.32
		s-0.578,0.107-0.791,0.32c-0.213,0.213-0.32,0.476-0.32,0.792c0,0.314,0.107,0.578,0.32,0.791S16.737,9.888,17.052,9.888
		 M13.72,9.888c0.313,0,0.578-0.107,0.791-0.32s0.319-0.477,0.319-0.791c0-0.315-0.106-0.578-0.319-0.792
		c-0.213-0.213-0.478-0.32-0.791-0.32c-0.315,0-0.579,0.107-0.792,0.32c-0.213,0.213-0.319,0.476-0.319,0.792
		c0,0.314,0.106,0.578,0.319,0.791S13.404,9.888,13.72,9.888 M5.222,15.054h14.773V7.665c0-0.5-0.18-0.93-0.541-1.291
		c-0.36-0.361-0.792-0.542-1.292-0.542H5.222V15.054z M7.442,5.055h8.109V0.778H7.442V5.055z M2.61,16.163
		c0.5,0,0.93-0.18,1.291-0.541c0.361-0.361,0.542-0.793,0.542-1.293V6.554c0-0.5-0.181-0.93-0.542-1.291
		C3.541,4.902,3.11,4.721,2.61,4.721s-0.93,0.181-1.291,0.542C0.958,5.624,0.777,6.054,0.777,6.554v7.775
		c0,0.5,0.181,0.932,0.542,1.293C1.681,15.983,2.11,16.163,2.61,16.163 M2.61,16.94c-0.725,0-1.342-0.254-1.849-0.76
		C0.253,15.673,0,15.056,0,14.329V6.554c0-0.725,0.254-1.341,0.762-1.849C1.269,4.198,1.886,3.944,2.61,3.944
		c0.444,0,0.852,0.102,1.222,0.305c0.37,0.204,0.685,0.472,0.944,0.806h1.889V0h9.664v5.055h1.833c0.726,0,1.343,0.253,1.85,0.761
		c0.508,0.508,0.762,1.124,0.762,1.849v8.164H4.776c-0.259,0.334-0.574,0.604-0.944,0.807S3.055,16.94,2.61,16.94"/>
</g>
</svg>
