<?xml version="1.0" encoding="utf-8"?>
<!-- Generator: Adobe Illustrator 16.0.0, SVG Export Plug-In . SVG Version: 6.00 Build 0)  -->
<!DOCTYPE svg PUBLIC "-//W3C//DTD SVG 1.1//EN" "http://www.w3.org/Graphics/SVG/1.1/DTD/svg11.dtd">
<svg version="1.1" id="Layer_1" xmlns="http://www.w3.org/2000/svg" xmlns:xlink="http://www.w3.org/1999/xlink" x="0px" y="0px"
	 width="529.2px" height="526.32px" viewBox="0 0 529.2 526.32" enable-background="new 0 0 529.2 526.32" xml:space="preserve">
<g>
	<g>
		<path fill="#9AB5D6" d="M231.405,466.334H48.799C21.894,466.334,0,444.44,0,417.535V48.799C0,21.895,21.894,0,48.799,0h223.999
			c26.904,0,48.815,21.895,48.815,48.799v148.569h-16.352V48.799c0-17.908-14.556-32.464-32.464-32.464H48.799
			c-17.892,0-32.446,14.556-32.446,32.464v368.736c0,17.908,14.556,32.464,32.446,32.464h182.605L231.405,466.334L231.405,466.334z"
			/>
	</g>
	<path fill="#9AB5D6" d="M150.057,215.174l-86.771-0.12l0.019-16.231l86.771,0.12L150.057,215.174z M250.066,150.057H59.353v-16.23
		h190.714V150.057z M250.066,84.958H59.353V68.727h190.714V84.958z"/>
	<path fill="#9AB5D6" d="M359.021,525.994c-93.972,0-170.411-76.457-170.411-170.411s76.457-170.411,170.411-170.411
		s170.41,76.457,170.41,170.411S452.993,525.994,359.021,525.994z M359.021,201.507c-84.958,0-154.076,69.119-154.076,154.076
		c0,84.958,69.118,154.076,154.076,154.076c84.957,0,154.076-69.118,154.076-154.076
		C513.098,270.626,443.979,201.507,359.021,201.507z"/>
	<path fill="#9AB5D6" d="M374.62,437.223c-40.194,0-72.916-37.339-72.916-83.213c0-45.892,32.722-83.213,72.916-83.213
		c11.598,0,23.159,3.198,33.405,9.22c3.884,2.292,5.184,7.304,2.907,11.187c-2.292,3.9-7.286,5.2-11.186,2.908
		c-7.853-4.618-16.318-6.963-25.127-6.963c-31.198,0-56.564,30.002-56.564,66.879c0,36.878,25.366,66.879,56.564,66.879
		c10.073,0,19.979-3.183,28.633-9.202c3.763-2.583,8.809-1.659,11.375,2.035c2.582,3.712,1.658,8.792-2.036,11.374
		C401.2,433.032,388.064,437.223,374.62,437.223z"/>
	<path fill="#9AB5D6" d="M390.647,346.586H279.965c-4.517,0-8.177-3.66-8.177-8.176s3.66-8.176,8.177-8.176h110.683
		c4.516,0,8.176,3.66,8.176,8.176S395.163,346.586,390.647,346.586z"/>
	<path fill="#9AB5D6" d="M390.647,376.639H279.965c-4.517,0-8.177-3.66-8.177-8.176s3.66-8.176,8.177-8.176h110.683
		c4.516,0,8.176,3.66,8.176,8.176S395.163,376.639,390.647,376.639z"/>
</g>
</svg>
