<?xml version="1.0" encoding="utf-8"?>
<!-- Generator: Adobe Illustrator 16.0.0, SVG Export Plug-In . SVG Version: 6.00 Build 0)  -->
<!DOCTYPE svg PUBLIC "-//W3C//DTD SVG 1.1//EN" "http://www.w3.org/Graphics/SVG/1.1/DTD/svg11.dtd">
<svg version="1.1" id="Layer_1" xmlns="http://www.w3.org/2000/svg" xmlns:xlink="http://www.w3.org/1999/xlink" x="0px" y="0px"
	 width="54.76px" height="56.71px" viewBox="0 0 54.76 56.71" enable-background="new 0 0 54.76 56.71" xml:space="preserve">
<g>
	<g>
		<defs>
			<rect id="SVGID_1_" width="54.756" height="56.712"/>
		</defs>
		<clipPath id="SVGID_2_">
			<use xlink:href="#SVGID_1_"  overflow="visible"/>
		</clipPath>
		<path clip-path="url(#SVGID_2_)" fill="none" stroke="#9BB6D8" stroke-width="1.314" stroke-miterlimit="10" d="M19.091,43.338
			H4.51c-2.128,0-3.853-1.725-3.853-3.854V4.511c0-2.128,1.725-3.854,3.853-3.854h21.246c2.128,0,3.854,1.726,3.854,3.854v7.417"/>
		<path clip-path="url(#SVGID_2_)" fill="none" stroke="#9BB6D8" stroke-width="1.563" stroke-miterlimit="10" d="M34.757,38.187
			l-2.669,10.656c-0.108,0.433-0.05,0.889,0.161,1.279l2.642,4.877c0.647,1.195,2.342,1.251,3.067,0.102l3.08-4.888
			c0.279-0.442,0.349-0.987,0.189-1.486l-3.314-10.405 M31.591,31.494l2.634,7.346h4.216l2.428-7.127 M32.671,13.862
			c0,0,1.338,1.132,2.83,1.606c1.186,0.376,2.98,0.01,4.118-0.495c2.291-1.02,4.102-0.51,5.175-0.321 M37.022,29.051h-0.755
			c-4.158,0-7.562-3.404-7.562-7.563v-6.504c0-3.184,2.604-5.79,5.79-5.79h4.3c3.184,0,5.79,2.606,5.79,5.79v6.504
			C44.586,25.647,41.183,29.051,37.022,29.051z M53.975,49.049c0-13.451-5.125-17.284-5.125-17.284
			c-1.593-1.593-4.041-1.959-6.029-0.9c-3.99,2.122-8.774,2.122-12.765,0c-1.988-1.059-4.437-0.692-6.03,0.9
			c0,0-6.3,4.255-4.935,17.899"/>
	</g>
	<path fill="none" stroke="#9BB6D8" stroke-width="1.305" stroke-miterlimit="10" d="M5.887,19.51l8.229,0.011 M5.511,13.345h18.09
		 M5.511,7.172h18.09"/>
</g>
</svg>
