<?xml version="1.0" encoding="utf-8"?>
<!-- Generator: Adobe Illustrator 16.0.0, SVG Export Plug-In . SVG Version: 6.00 Build 0)  -->
<!DOCTYPE svg PUBLIC "-//W3C//DTD SVG 1.1//EN" "http://www.w3.org/Graphics/SVG/1.1/DTD/svg11.dtd">
<svg version="1.1" id="Layer_1" xmlns="http://www.w3.org/2000/svg" xmlns:xlink="http://www.w3.org/1999/xlink" x="0px" y="0px"
	 width="271.5px" height="307.5px" viewBox="0 0 271.5 307.5" enable-background="new 0 0 271.5 307.5" xml:space="preserve">
<g>
	<g>
		<defs>
			<rect id="SVGID_1_" width="271.5" height="307.5"/>
		</defs>
		<clipPath id="SVGID_2_">
			<use xlink:href="#SVGID_1_"  overflow="visible"/>
		</clipPath>
		<polyline clip-path="url(#SVGID_2_)" fill="none" stroke="#9BB6D8" stroke-width="5" stroke-linecap="round" points="211,33 
			170,125 109,210 75,305 		"/>
		<path clip-path="url(#SVGID_2_)" fill="none" stroke="#9BB6D8" stroke-width="5" stroke-linecap="round" d="M70.5,110
			C73,110,118,99,120,99s67,34,67,34l46,37l36,14"/>
		
			<line clip-path="url(#SVGID_2_)" fill="none" stroke="#9BB6D8" stroke-width="2" stroke-linecap="round" x1="115" y1="1" x2="134" y2="106"/>
	</g>
	<polyline fill="none" stroke="#9BB6D8" stroke-width="2" stroke-linecap="round" points="155.125,147 173,180 143.125,280 	"/>
	<g>
		<defs>
			<rect id="SVGID_3_" width="271.5" height="307.5"/>
		</defs>
		<clipPath id="SVGID_4_">
			<use xlink:href="#SVGID_3_"  overflow="visible"/>
		</clipPath>
		<path clip-path="url(#SVGID_4_)" fill="none" stroke="#9BB6D8" stroke-width="2" stroke-linecap="round" d="M135,174
			c0,0-16-12-15-12s21-27,21-27"/>
	</g>
	<line fill="none" stroke="#9BB6D8" stroke-width="2" stroke-linecap="round" x1="96" y1="246" x2="87" y2="240"/>
	<line fill="none" stroke="#9BB6D8" stroke-width="2" stroke-linecap="round" x1="121" y1="192" x2="116" y2="188"/>
	<polyline fill="none" stroke="#9BB6D8" stroke-width="4" stroke-linecap="round" points="8,286 147,264 170.58,274.633 215.75,295 
			"/>
	<polyline fill="none" stroke="#9BB6D8" stroke-width="2" stroke-linecap="round" points="171,274 186,219 199,210 198,173 173,181 
		156,184 144,217 129,223 130,267 	"/>
	<g>
		<defs>
			<rect id="SVGID_5_" width="271.5" height="307.5"/>
		</defs>
		<clipPath id="SVGID_6_">
			<use xlink:href="#SVGID_5_"  overflow="visible"/>
		</clipPath>
		<circle clip-path="url(#SVGID_6_)" fill="none" stroke="#9BB6D8" cx="162" cy="49" r="16"/>
	</g>
	<polygon fill="#9BB6D8" points="158.328,48.854 165.672,48.854 162,36 	"/>
	<g>
		<defs>
			<rect id="SVGID_7_" width="271.5" height="307.5"/>
		</defs>
		<clipPath id="SVGID_8_">
			<use xlink:href="#SVGID_7_"  overflow="visible"/>
		</clipPath>
		<path clip-path="url(#SVGID_8_)" fill="none" stroke="#9BB6D8" stroke-width="0.5" d="M158.687,49.582h6.627
			c-1.104,3.865-2.209,7.732-3.313,11.598C160.896,57.314,159.791,53.447,158.687,49.582z"/>
	</g>
	<text transform="matrix(0.7771 0.6293 -0.6293 0.7771 199.9023 130.3228)"><tspan x="0" y="0" fill="#FFFFFF" font-family="'MyriadPro-Regular'" font-size="7">A</tspan><tspan x="4.263" y="0" fill="#FFFFFF" font-family="'MyriadPro-Regular'" font-size="7">m </tspan><tspan x="11.585" y="0" fill="#FFFFFF" font-family="'MyriadPro-Regular'" font-size="7">L</tspan><tspan x="14.79" y="0" fill="#FFFFFF" font-family="'MyriadPro-Regular'" font-size="7">uisenhof</tspan></text>
	
		<text transform="matrix(0.2588 -0.9659 0.9659 0.2588 180.0713 270.5117)" fill="#FFFFFF" font-family="'MyriadPro-Regular'" font-size="7">Buchner</text>
	
		<text transform="matrix(0.2588 -0.9659 0.9659 0.2588 186.3652 247.0225)" fill="#FFFFFF" font-family="'MyriadPro-Regular'" font-size="7">-</text>
	<text transform="matrix(0.2756 -0.9613 0.9613 0.2756 159.0469 249.415)"><tspan x="0" y="0" fill="#FFFFFF" font-family="'MyriadPro-Regular'" font-size="7">B</tspan><tspan x="3.823" y="0" fill="#FFFFFF" font-family="'MyriadPro-Regular'" font-size="7">e</tspan><tspan x="7.33" y="-0.001" fill="#FFFFFF" font-family="'MyriadPro-Regular'" font-size="7">r</tspan><tspan x="9.639" y="-0.001" fill="#FFFFFF" font-family="'MyriadPro-Regular'" font-size="7">ner Heer</tspan></text>
	
		<text transform="matrix(0.2756 -0.9613 0.9613 0.2756 168.5957 216.1143)" fill="#FFFFFF" font-family="'MyriadPro-Regular'" font-size="7">-</text>
	<text transform="matrix(0.9877 -0.1564 0.1564 0.9877 22.7246 291.3086)"><tspan x="0" y="0" fill="#FFFFFF" font-family="'MyriadPro-Regular'" font-size="7">E</tspan><tspan x="3.423" y="0" fill="#FFFFFF" font-family="'MyriadPro-Regular'" font-size="7">cke</tspan><tspan x="13.349" y="0" fill="#FFFFFF" font-family="'MyriadPro-Regular'" font-size="7">r</tspan><tspan x="15.665" y="0" fill="#FFFFFF" font-family="'MyriadPro-Regular'" font-size="7">koppel</tspan></text>
	<text transform="matrix(-0.1736 -0.9848 0.9848 -0.1736 121.3721 83.312)"><tspan x="0" y="0" fill="#FFFFFF" font-family="'MyriadPro-Regular'" font-size="7">A</tspan><tspan x="4.2" y="0" fill="#FFFFFF" font-family="'MyriadPro-Regular'" font-size="7">ugus</tspan><tspan x="18.599" y="0" fill="#FFFFFF" font-family="'MyriadPro-Regular'" font-size="7">t</tspan><tspan x="20.881" y="0" fill="#FFFFFF" font-family="'MyriadPro-Regular'" font-size="7">-</tspan><tspan x="23.03" y="0" fill="#FFFFFF" font-family="'MyriadPro-Regular'" font-size="7">K</tspan><tspan x="26.894" y="0" fill="#FFFFFF" font-family="'MyriadPro-Regular'" font-size="7">r</tspan><tspan x="29.12" y="0" fill="#FFFFFF" font-family="'MyriadPro-Regular'" font-size="7">og</tspan></text>
	
		<text transform="matrix(-0.1736 -0.9848 0.9848 -0.1736 114.9702 47.0039)" fill="#FFFFFF" font-family="'MyriadPro-Regular'" font-size="7">-</text>
	<text transform="matrix(1 0 0 1 140 85.25)"><tspan x="0" y="0" fill="#FFFFFF" font-family="'MyriadPro-Regular'" font-size="7">F</tspan><tspan x="3.094" y="0" fill="#FFFFFF" font-family="'MyriadPro-Regular'" font-size="7">a</tspan><tspan x="6.468" y="0" fill="#FFFFFF" font-family="'MyriadPro-Regular'" font-size="7">r</tspan><tspan x="8.778" y="0" fill="#FFFFFF" font-family="'MyriadPro-Regular'" font-size="7">msen</tspan></text>
	<text transform="matrix(0.3987 -0.9171 0.9171 0.3987 189.2373 108.5894)"><tspan x="0" y="0" fill="#FFFFFF" font-family="'MyriadPro-Regular'" font-size="7">F</tspan><tspan x="3.226" y="0" fill="#FFFFFF" font-family="'MyriadPro-Regular'" font-size="7">r</tspan><tspan x="5.544" y="-0.001" fill="#FFFFFF" font-family="'MyriadPro-Regular'" font-size="7">ied</tspan><tspan x="14.636" y="0" fill="#FFFFFF" font-family="'MyriadPro-Regular'" font-size="7">r</tspan><tspan x="16.946" y="0" fill="#FFFFFF" font-family="'MyriadPro-Regular'" font-size="7">ich-Ebe</tspan><tspan x="38.688" y="0" fill="#FFFFFF" font-family="'MyriadPro-Regular'" font-size="7">r</tspan><tspan x="41.137" y="0" fill="#FFFFFF" font-family="'MyriadPro-Regular'" font-size="7">t </tspan></text>
	
		<text transform="matrix(0.3987 -0.9171 0.9171 0.3987 196.9404 111.939)" fill="#FFFFFF" font-family="'MyriadPro-Regular'" font-size="7">Damm</text>
	<text transform="matrix(0.5878 -0.809 0.809 0.5878 122.2471 208.2686)"><tspan x="0" y="0" fill="#FFFFFF" font-family="'MyriadPro-Regular'" font-size="7">F</tspan><tspan x="3.227" y="0" fill="#FFFFFF" font-family="'MyriadPro-Regular'" font-size="7">r</tspan><tspan x="5.544" y="0" fill="#FFFFFF" font-family="'MyriadPro-Regular'" font-size="7">ied</tspan><tspan x="14.637" y="0" fill="#FFFFFF" font-family="'MyriadPro-Regular'" font-size="7">r</tspan><tspan x="16.954" y="0" fill="#FFFFFF" font-family="'MyriadPro-Regular'" font-size="7">ich-Ebe</tspan><tspan x="38.695" y="0" fill="#FFFFFF" font-family="'MyriadPro-Regular'" font-size="7">r</tspan><tspan x="41.145" y="0" fill="#FFFFFF" font-family="'MyriadPro-Regular'" font-size="7">t </tspan></text>
	<g>
		<defs>
			<rect id="SVGID_9_" width="271.5" height="307.5"/>
		</defs>
		<clipPath id="SVGID_10_">
			<use xlink:href="#SVGID_9_"  overflow="visible"/>
		</clipPath>
		<g clip-path="url(#SVGID_10_)">
			<text transform="matrix(1 0 0 1 0 210)"><tspan x="0" y="0" fill="#FFFFFF" font-family="'MyriadPro-Regular'" font-size="8">F</tspan><tspan x="4" y="0" fill="#FFFFFF" font-family="'MyriadPro-Regular'" font-size="8">r</tspan><tspan x="6.96" y="0" fill="#FFFFFF" font-family="'MyriadPro-Regular'" font-size="8">i</tspan><tspan x="9.144" y="0" fill="#FFFFFF" font-family="'MyriadPro-Regular'" font-size="8">e</tspan><tspan x="13.472" y="0" fill="#FFFFFF" font-family="'MyriadPro-Regular'" font-size="8">d</tspan><tspan x="18.296" y="0" fill="#FFFFFF" font-family="'MyriadPro-Regular'" font-size="8">r</tspan><tspan x="21.256" y="0" fill="#FFFFFF" font-family="'MyriadPro-Regular'" font-size="8">ic</tspan><tspan x="27.336" y="0" fill="#FFFFFF" font-family="'MyriadPro-Regular'" font-size="8">h-Ebe</tspan><tspan x="48.327" y="0" fill="#FFFFFF" font-family="'MyriadPro-Regular'" font-size="8">r</tspan><tspan x="51.455" y="0" fill="#FFFFFF" font-family="'MyriadPro-Regular'" font-size="8">t</tspan><tspan x="54.415" y="0" fill="#FFFFFF" font-family="'MyriadPro-Regular'" font-size="8"> D</tspan><tspan x="62.079" y="0" fill="#FFFFFF" font-family="'MyriadPro-Regular'" font-size="8">am</tspan><tspan x="73.231" y="0" fill="#FFFFFF" font-family="'MyriadPro-Regular'" font-size="8">m </tspan></text>
		</g>
	</g>
	<rect x="143" y="92" fill="#9BB6D8" width="12" height="12"/>
	<rect x="99" y="187" fill="#9BB6D8" width="12" height="12"/>
	<rect x="83" y="223" fill="#9BB6D8" width="12" height="12"/>
	<g>
		<defs>
			<rect id="SVGID_11_" width="271.5" height="307.5"/>
		</defs>
		<clipPath id="SVGID_12_">
			<use xlink:href="#SVGID_11_"  overflow="visible"/>
		</clipPath>
		<path clip-path="url(#SVGID_12_)" fill="#FFFFFF" d="M146.432,98.437c0,0.721,0.042,1.266,0.127,1.635
			c0.059,0.249,0.181,0.487,0.365,0.714s0.436,0.412,0.754,0.554c0.317,0.142,0.783,0.213,1.399,0.213
			c0.509,0,0.922-0.066,1.239-0.196c0.316-0.13,0.569-0.305,0.758-0.525c0.189-0.22,0.318-0.489,0.39-0.809
			c0.069-0.319,0.104-0.865,0.104-1.639V95h-1.301v3.564c0,0.51-0.02,0.875-0.058,1.095c-0.037,0.219-0.15,0.405-0.338,0.556
			c-0.188,0.151-0.466,0.226-0.835,0.226c-0.362,0-0.649-0.08-0.858-0.24c-0.21-0.159-0.343-0.371-0.398-0.635
			c-0.032-0.164-0.048-0.523-0.048-1.076V95h-1.301V98.437z"/>
		<path clip-path="url(#SVGID_12_)" fill="#FFFFFF" d="M104.572,190.453c0.625,0,1.041,0.02,1.248,0.059
			c0.281,0.051,0.514,0.178,0.697,0.381c0.184,0.203,0.276,0.461,0.276,0.773c0,0.254-0.066,0.477-0.197,0.668
			c-0.131,0.191-0.311,0.332-0.542,0.422c-0.23,0.09-0.687,0.135-1.371,0.135h-0.949v-2.438H104.572z M103.734,197.59v-3.24h1.131
			c0.785,0,1.385-0.041,1.799-0.123c0.304-0.066,0.604-0.202,0.899-0.408c0.295-0.204,0.538-0.486,0.73-0.846
			c0.191-0.359,0.287-0.803,0.287-1.33c0-0.684-0.166-1.241-0.498-1.673s-0.744-0.712-1.237-0.841
			c-0.32-0.086-1.007-0.129-2.062-0.129H102v8.59H103.734z"/>
		<path clip-path="url(#SVGID_12_)" fill="#FFFFFF" d="M88.572,226.453c0.625,0,1.041,0.02,1.248,0.059
			c0.281,0.051,0.514,0.178,0.697,0.381c0.184,0.203,0.276,0.461,0.276,0.773c0,0.254-0.066,0.477-0.197,0.668
			c-0.131,0.191-0.311,0.332-0.542,0.422c-0.23,0.09-0.687,0.135-1.371,0.135h-0.949v-2.438H88.572z M87.734,233.59v-3.24h1.131
			c0.785,0,1.385-0.041,1.799-0.123c0.304-0.066,0.604-0.202,0.899-0.408c0.295-0.204,0.538-0.486,0.73-0.846
			c0.191-0.359,0.287-0.803,0.287-1.33c0-0.684-0.166-1.241-0.498-1.673s-0.744-0.712-1.237-0.841
			c-0.32-0.086-1.007-0.129-2.062-0.129H86v8.59H87.734z"/>
		<path clip-path="url(#SVGID_12_)" fill="#FFFFFF" d="M94.491,217.981c-4.131,0-7.491-3.361-7.491-7.491
			c0-4.131,3.36-7.491,7.491-7.491c4.13,0,7.491,3.36,7.491,7.491C101.982,214.62,98.621,217.981,94.491,217.981 M94.491,203.77
			c-3.706,0-6.721,3.015-6.721,6.721s3.015,6.722,6.721,6.722s6.721-3.016,6.721-6.722S98.197,203.77,94.491,203.77"/>
		<path clip-path="url(#SVGID_12_)" fill="#FFFFFF" d="M91.458,209.56c-1.076,3.766,4.402,2.594,4.536,3.89
			c0.062,0.6-0.637,0.902-1.197,0.902c-0.94,0-2.187-0.478-2.43-1.842h-1.003v2.702h0.929l0.236-0.493
			c0.609,0.378,1.574,0.608,2.3,0.608c1.475,0,3.067-0.473,3.067-2.203c0-3.444-5.384-0.993-6.427-3.564"/>
		<path clip-path="url(#SVGID_12_)" fill="#CD6743" d="M91.406,208.564c0.936,2.31,5.37,0.57,6.268,2.682
			c0.001,0.004,0.004,0.007,0.005,0.01c1.076-3.767-4.285-2.608-4.525-3.89c-0.129-0.691,0.577-0.902,1.197-0.902
			c0.94,0,1.934,0.619,2.094,1.721h0.983v-2.581h-0.887l-0.192,0.493c-0.609-0.378-1.303-0.608-2.03-0.608
			C90.23,205.488,91.406,208.564,91.406,208.564"/>
	</g>
</g>
</svg>
