<?xml version="1.0" encoding="utf-8"?>
<!-- Generator: Adobe Illustrator 16.0.0, SVG Export Plug-In . SVG Version: 6.00 Build 0)  -->
<!DOCTYPE svg PUBLIC "-//W3C//DTD SVG 1.1//EN" "http://www.w3.org/Graphics/SVG/1.1/DTD/svg11.dtd">
<svg version="1.1" id="Layer_1" xmlns="http://www.w3.org/2000/svg" xmlns:xlink="http://www.w3.org/1999/xlink" x="0px" y="0px"
	 width="25px" height="25.73px" viewBox="0 0 25 25.73" enable-background="new 0 0 25 25.73" xml:space="preserve">
<g>
	<defs>
		<rect id="SVGID_1_" width="25" height="25.729"/>
	</defs>
	<clipPath id="SVGID_2_">
		<use xlink:href="#SVGID_1_"  overflow="visible"/>
	</clipPath>
	<path clip-path="url(#SVGID_2_)" fill="#9BB6D8" d="M16.263,22.977c1.105,0.566,2.299,0.979,3.58,1.234
		c1.28,0.256,2.353,0.385,3.216,0.385c0.162,0,0.297-0.055,0.404-0.162s0.161-0.244,0.161-0.404v-3.156
		c0-0.215-0.054-0.391-0.161-0.525s-0.27-0.229-0.485-0.283l-2.751-0.566c-0.161-0.053-0.304-0.061-0.425-0.02
		c-0.121,0.039-0.249,0.127-0.385,0.264L16.263,22.977z M2.993,10.032L6.23,7.12c0.134-0.108,0.222-0.256,0.262-0.445
		c0.041-0.189,0.034-0.364-0.02-0.526L5.744,2.832C5.69,2.615,5.596,2.454,5.461,2.346c-0.135-0.108-0.31-0.162-0.526-0.162H1.699
		c-0.162,0-0.297,0.054-0.405,0.162C1.187,2.454,1.132,2.588,1.132,2.75c0,1.106,0.169,2.279,0.506,3.52
		C1.975,7.51,2.427,8.765,2.993,10.032 M23.059,25.729c-2.616,0-5.293-0.701-8.03-2.104c-2.737-1.402-5.218-3.217-7.443-5.441
		c-2.225-2.225-4.046-4.699-5.461-7.423C0.708,8.037,0,5.366,0,2.75c0-0.485,0.162-0.89,0.485-1.213
		c0.324-0.324,0.728-0.486,1.214-0.486h3.236c0.485,0,0.897,0.142,1.234,0.425C6.506,1.759,6.729,2.13,6.836,2.588l0.729,3.318
		c0.08,0.431,0.074,0.822-0.021,1.173c-0.094,0.35-0.29,0.647-0.586,0.89L3.56,11.084c1.51,2.535,3.195,4.718,5.056,6.552
		c1.861,1.834,4.059,3.453,6.594,4.855l3.317-3.48c0.297-0.295,0.6-0.492,0.91-0.586s0.653-0.1,1.032-0.02l2.751,0.566
		c0.458,0.107,0.828,0.33,1.111,0.666c0.283,0.338,0.425,0.75,0.425,1.234v3.156c0,0.484-0.161,0.891-0.484,1.213
		C23.948,25.566,23.543,25.729,23.059,25.729 M17.396,12.378c-0.243-1.214-0.796-2.259-1.659-3.135
		c-0.863-0.876-1.901-1.423-3.115-1.638V6.473c1.537,0.216,2.845,0.87,3.924,1.962c1.079,1.092,1.739,2.407,1.982,3.944H17.396z
		 M23.867,12.378c-0.243-3.021-1.422-5.589-3.54-7.706c-2.117-2.117-4.685-3.297-7.706-3.54V0c1.672,0.108,3.236,0.499,4.693,1.174
		c1.456,0.674,2.737,1.564,3.843,2.669c1.105,1.106,1.995,2.387,2.67,3.843c0.674,1.457,1.065,3.021,1.173,4.693H23.867z"/>
</g>
</svg>
