<?xml version="1.0" encoding="utf-8"?>
<!-- Generator: Adobe Illustrator 16.0.0, SVG Export Plug-In . SVG Version: 6.00 Build 0)  -->
<!DOCTYPE svg PUBLIC "-//W3C//DTD SVG 1.1//EN" "http://www.w3.org/Graphics/SVG/1.1/DTD/svg11.dtd">
<svg version="1.1" id="Layer_1" xmlns="http://www.w3.org/2000/svg" xmlns:xlink="http://www.w3.org/1999/xlink" x="0px" y="0px"
	 width="29.3px" height="29.3px" viewBox="0 0 29.3 29.3" enable-background="new 0 0 29.3 29.3" xml:space="preserve">
<g>
	<g>
		<defs>
			<rect id="SVGID_1_" width="29.295" height="29.295"/>
		</defs>
		<clipPath id="SVGID_2_">
			<use xlink:href="#SVGID_1_"  overflow="visible"/>
		</clipPath>
		<path clip-path="url(#SVGID_2_)" fill="none" stroke="#CD6743" stroke-width="1.22" stroke-miterlimit="10" d="M14.664,0.61
			c-1.93,0-3.749,0.365-5.455,1.095C7.502,2.435,6.008,3.44,4.725,4.722C3.443,6.002,2.438,7.495,1.707,9.199
			c-0.731,1.704-1.096,3.525-1.096,5.462s0.365,3.753,1.095,5.446c0.73,1.693,1.736,3.181,3.016,4.463
			c1.281,1.282,2.774,2.288,4.478,3.02c1.704,0.73,3.524,1.096,5.462,1.096c1.938,0,3.752-0.365,5.445-1.095
			c1.692-0.73,3.181-1.736,4.463-3.017s2.289-2.771,3.02-4.468c0.731-1.698,1.097-3.512,1.097-5.442s-0.365-3.748-1.096-5.455
			c-0.729-1.707-1.735-3.201-3.017-4.483c-1.281-1.282-2.77-2.289-4.467-3.02C18.408,0.975,16.595,0.61,14.664,0.61z"/>
	</g>
	<line fill="none" stroke="#CD6743" stroke-width="1.22" x1="7.617" y1="14.647" x2="20.617" y2="14.647"/>
	<polyline fill="none" stroke="#CD6743" stroke-width="1.22" points="15.971,19.647 20.971,14.647 15.971,9.647 	"/>
</g>
</svg>
