<?xml version="1.0" encoding="utf-8"?>
<!-- Generator: Adobe Illustrator 16.0.0, SVG Export Plug-In . SVG Version: 6.00 Build 0)  -->
<!DOCTYPE svg PUBLIC "-//W3C//DTD SVG 1.1//EN" "http://www.w3.org/Graphics/SVG/1.1/DTD/svg11.dtd">
<svg version="1.1" id="Layer_1" xmlns="http://www.w3.org/2000/svg" xmlns:xlink="http://www.w3.org/1999/xlink" x="0px" y="0px"
	 width="58.37px" height="56.62px" viewBox="0 0 58.37 56.62" enable-background="new 0 0 58.37 56.62" xml:space="preserve">
<g>
	<g>
		<defs>
			<rect id="SVGID_1_" width="58.366" height="56.618"/>
		</defs>
		<clipPath id="SVGID_2_">
			<use xlink:href="#SVGID_1_"  overflow="visible"/>
		</clipPath>
		<path clip-path="url(#SVGID_2_)" fill="none" stroke="#9BB6D8" stroke-width="1.298" stroke-miterlimit="10" d="M40.448,55.844
			c0,0-8.902-5.799-13.733-13.637c-2.047-3.322-3.536-7.407-3.536-12.885V19.198l17.269-3.16l17.269,3.16v10.125
			c0,5.478-1.488,9.563-3.536,12.885C49.351,50.045,40.448,55.844,40.448,55.844z"/>
		<path clip-path="url(#SVGID_2_)" fill="none" stroke="#9BB6D8" stroke-width="1.298" stroke-miterlimit="10" d="M27.141,42.809
			H4.456c-2.103,0-3.807-1.704-3.807-3.807V4.456c0-2.102,1.704-3.806,3.807-3.806h20.986c2.102,0,3.807,1.704,3.807,3.806v13.392"
			/>
	</g>
	<polyline fill="none" stroke="#9BB6D8" stroke-width="1.386" stroke-miterlimit="10" points="31.933,33.909 39.212,39.856 
		50.981,24.793 	"/>
	<path fill="none" stroke="#9BB6D8" stroke-width="1.305" stroke-miterlimit="10" d="M6.541,19.792l8.229,0.011 M6.165,13.626h18.09
		 M6.165,7.453h18.09"/>
</g>
</svg>
