<?xml version="1.0" encoding="utf-8"?>
<!-- Generator: Adobe Illustrator 16.0.0, SVG Export Plug-In . SVG Version: 6.00 Build 0)  -->
<!DOCTYPE svg PUBLIC "-//W3C//DTD SVG 1.1//EN" "http://www.w3.org/Graphics/SVG/1.1/DTD/svg11.dtd">
<svg version="1.1" id="Layer_1" xmlns="http://www.w3.org/2000/svg" xmlns:xlink="http://www.w3.org/1999/xlink" x="0px" y="0px"
	 width="288.42px" height="49.92px" viewBox="0 0 288.42 49.92" enable-background="new 0 0 288.42 49.92" xml:space="preserve">
<g>
	<defs>
		<rect id="SVGID_1_" width="288.424" height="49.916"/>
	</defs>
	<clipPath id="SVGID_2_">
		<use xlink:href="#SVGID_1_"  overflow="visible"/>
	</clipPath>
	<path clip-path="url(#SVGID_2_)" fill="#FFFFFF" d="M24.959,49.916C11.196,49.916,0,38.721,0,24.958C0,11.194,11.196,0,24.959,0
		c13.762,0,24.958,11.194,24.958,24.958C49.917,38.721,38.721,49.916,24.959,49.916 M24.959,2.564
		C12.61,2.564,2.566,12.61,2.566,24.958c0,12.346,10.044,22.392,22.393,22.392c12.347,0,22.393-10.046,22.393-22.392
		C47.352,12.61,37.306,2.564,24.959,2.564"/>
	<path clip-path="url(#SVGID_2_)" fill="#FFFFFF" d="M14.853,21.856c-3.586,12.549,14.667,8.641,15.114,12.959
		c0.206,1.996-2.123,3.008-3.988,3.008c-3.133,0-7.288-1.589-8.097-6.138h-3.341v9.002h3.093l0.787-1.642
		c2.03,1.258,5.245,2.028,7.664,2.028c4.915,0,10.22-1.575,10.22-7.341c0-11.477-17.939-3.31-21.414-11.877"/>
	<path clip-path="url(#SVGID_2_)" fill="#CD6743" d="M14.681,18.541c3.12,7.693,17.891,1.9,20.883,8.934
		c0.004,0.013,0.014,0.021,0.018,0.033c3.585-12.55-14.277-8.69-15.076-12.96c-0.431-2.304,1.923-3.006,3.987-3.006
		c3.133,0,6.445,2.062,6.979,5.732h3.275V8.675h-2.956l-0.64,1.643c-2.029-1.258-4.343-2.027-6.764-2.027
		C10.762,8.291,14.681,18.541,14.681,18.541"/>
	<path clip-path="url(#SVGID_2_)" fill="#FFFFFF" d="M285.306,18.422V29.76c0,0.054-0.023,0.086-0.068,0.095
		c-0.046,0.009-0.076-0.013-0.095-0.068l-4.068-11.417c-0.055-0.18-0.173-0.271-0.353-0.271h-2.794c-0.09,0-0.167,0.032-0.23,0.095
		s-0.095,0.14-0.095,0.23v18.335c0,0.09,0.031,0.167,0.095,0.229c0.063,0.064,0.141,0.095,0.23,0.095h2.469
		c0.09,0,0.166-0.03,0.23-0.095c0.063-0.063,0.095-0.14,0.095-0.229l-0.027-11.42c0-0.053,0.022-0.084,0.068-0.094
		c0.045-0.009,0.076,0.014,0.095,0.067l4.041,11.5c0.055,0.181,0.171,0.271,0.353,0.271h2.848c0.09,0,0.167-0.03,0.231-0.095
		c0.063-0.063,0.094-0.14,0.094-0.229V18.422c0-0.09-0.031-0.167-0.094-0.23c-0.064-0.063-0.142-0.095-0.231-0.095h-2.468
		c-0.091,0-0.167,0.032-0.231,0.095C285.337,18.255,285.306,18.333,285.306,18.422 M274.457,20.484v-2.062
		c0-0.09-0.032-0.167-0.096-0.23s-0.14-0.095-0.23-0.095h-8.814c-0.091,0-0.167,0.032-0.23,0.095s-0.094,0.14-0.094,0.23v18.335
		c0,0.09,0.03,0.167,0.094,0.229c0.063,0.064,0.14,0.095,0.23,0.095h8.814c0.091,0,0.167-0.03,0.23-0.095
		c0.063-0.063,0.096-0.14,0.096-0.229v-2.063c0-0.09-0.032-0.167-0.096-0.229c-0.063-0.063-0.14-0.096-0.23-0.096h-5.858
		c-0.09,0-0.135-0.045-0.135-0.136v-5.153c0-0.09,0.045-0.135,0.135-0.135h3.473c0.09,0,0.167-0.032,0.229-0.095
		c0.063-0.064,0.095-0.14,0.095-0.231v-2.088c0-0.091-0.031-0.167-0.095-0.23c-0.063-0.063-0.14-0.096-0.229-0.096h-3.473
		c-0.09,0-0.135-0.045-0.135-0.135v-5.126c0-0.091,0.045-0.136,0.135-0.136h5.858c0.091,0,0.167-0.031,0.23-0.095
		C274.425,20.651,274.457,20.575,274.457,20.484 M256.421,37.3c1.537,0,2.78-0.448,3.729-1.344c0.949-0.895,1.423-2.083,1.423-3.565
		v-5.019c0-0.09-0.03-0.166-0.094-0.229s-0.141-0.095-0.23-0.095h-4.611c-0.09,0-0.167,0.031-0.23,0.095s-0.095,0.14-0.095,0.229
		v1.98c0,0.091,0.031,0.168,0.095,0.231c0.063,0.063,0.141,0.095,0.23,0.095h1.655c0.09,0,0.135,0.045,0.135,0.135v2.604
		c0,0.65-0.186,1.176-0.556,1.572c-0.37,0.398-0.854,0.598-1.451,0.598s-1.076-0.199-1.438-0.598
		c-0.361-0.396-0.543-0.922-0.543-1.572v-9.655c0-0.651,0.182-1.175,0.543-1.573s0.841-0.597,1.438-0.597s1.081,0.199,1.451,0.597
		s0.556,0.922,0.556,1.573v1.112c0,0.09,0.032,0.167,0.095,0.23c0.063,0.064,0.141,0.095,0.231,0.095h2.495
		c0.09,0,0.167-0.031,0.23-0.095c0.063-0.063,0.094-0.14,0.094-0.23v-1.058c0-1.501-0.474-2.699-1.423-3.594
		s-2.192-1.342-3.729-1.342s-2.771,0.447-3.702,1.342s-1.397,2.085-1.397,3.567v9.601c0,1.482,0.467,2.671,1.397,3.565
		C253.649,36.852,254.884,37.3,256.421,37.3 M248.502,20.484v-2.062c0-0.09-0.032-0.167-0.096-0.23s-0.14-0.095-0.23-0.095h-8.814
		c-0.091,0-0.167,0.032-0.23,0.095s-0.095,0.14-0.095,0.23v18.335c0,0.09,0.031,0.167,0.095,0.229
		c0.063,0.064,0.14,0.095,0.23,0.095h8.814c0.091,0,0.167-0.03,0.23-0.095c0.063-0.063,0.096-0.14,0.096-0.229v-2.063
		c0-0.09-0.032-0.167-0.096-0.229c-0.063-0.063-0.14-0.096-0.23-0.096h-5.858c-0.09,0-0.135-0.045-0.135-0.136v-5.153
		c0-0.09,0.045-0.135,0.135-0.135h3.473c0.09,0,0.167-0.032,0.229-0.095c0.063-0.064,0.095-0.14,0.095-0.231v-2.088
		c0-0.091-0.031-0.167-0.095-0.23c-0.063-0.063-0.14-0.096-0.229-0.096h-3.473c-0.09,0-0.135-0.045-0.135-0.135v-5.126
		c0-0.091,0.045-0.136,0.135-0.136h5.858c0.091,0,0.167-0.031,0.23-0.095C248.47,20.651,248.502,20.575,248.502,20.484
		 M227.293,37.082h8.814c0.09,0,0.167-0.03,0.23-0.095c0.063-0.063,0.095-0.14,0.095-0.229v-2.063c0-0.09-0.032-0.167-0.095-0.229
		c-0.063-0.063-0.141-0.096-0.23-0.096h-5.858c-0.091,0-0.136-0.045-0.136-0.136V18.422c0-0.09-0.031-0.167-0.095-0.23
		s-0.141-0.095-0.23-0.095h-2.495c-0.091,0-0.167,0.032-0.231,0.095c-0.063,0.063-0.094,0.14-0.094,0.23v18.335
		c0,0.09,0.031,0.167,0.094,0.229C227.126,37.052,227.202,37.082,227.293,37.082 M215.224,37.082h8.815
		c0.09,0,0.167-0.03,0.229-0.095c0.063-0.063,0.095-0.14,0.095-0.229v-2.063c0-0.09-0.031-0.167-0.095-0.229
		c-0.063-0.063-0.14-0.096-0.229-0.096h-5.859c-0.09,0-0.135-0.045-0.135-0.136V18.422c0-0.09-0.032-0.167-0.096-0.23
		s-0.14-0.095-0.23-0.095h-2.495c-0.091,0-0.167,0.032-0.229,0.095c-0.064,0.063-0.096,0.14-0.096,0.23v18.335
		c0,0.09,0.031,0.167,0.096,0.229C215.057,37.052,215.133,37.082,215.224,37.082 M206.273,34.588c-0.615,0-1.107-0.212-1.478-0.639
		c-0.371-0.424-0.557-0.979-0.557-1.668v-9.384c0-0.687,0.186-1.243,0.557-1.668c0.37-0.424,0.862-0.637,1.478-0.637
		s1.112,0.213,1.492,0.637c0.379,0.425,0.569,0.981,0.569,1.668v9.384c0,0.688-0.19,1.244-0.569,1.668
		C207.386,34.376,206.889,34.588,206.273,34.588 M206.273,37.3c1.556,0,2.812-0.471,3.771-1.41c0.958-0.94,1.437-2.188,1.437-3.743
		v-9.113c0-1.555-0.479-2.802-1.437-3.743c-0.959-0.94-2.215-1.41-3.771-1.41c-1.555,0-2.807,0.47-3.756,1.41
		c-0.95,0.941-1.424,2.188-1.424,3.743v9.113c0,1.555,0.474,2.803,1.424,3.743C203.467,36.829,204.719,37.3,206.273,37.3
		 M188.428,37.082h2.495c0.091,0,0.167-0.03,0.23-0.095c0.063-0.063,0.096-0.14,0.096-0.229V30.98c0-0.036,0.018-0.091,0.054-0.163
		l1.085-1.816c0.036-0.036,0.072-0.06,0.108-0.068c0.035-0.009,0.063,0.014,0.082,0.068l3.199,7.838
		c0.055,0.163,0.182,0.243,0.38,0.243h2.686c0.18,0,0.271-0.071,0.271-0.217c0-0.071-0.009-0.126-0.026-0.163l-4.395-10.44
		c0-0.037,0.01-0.091,0.027-0.163l4.069-7.621c0.054-0.109,0.063-0.199,0.026-0.272c-0.037-0.072-0.118-0.108-0.244-0.108h-2.685
		c-0.181,0-0.317,0.081-0.407,0.244l-4.068,7.622c-0.036,0.054-0.072,0.076-0.108,0.067s-0.054-0.05-0.054-0.122v-7.486
		c0-0.09-0.032-0.167-0.096-0.23s-0.14-0.095-0.23-0.095h-2.495c-0.091,0-0.167,0.032-0.23,0.095s-0.095,0.14-0.095,0.23v18.335
		c0,0.09,0.031,0.167,0.095,0.229C188.261,37.052,188.337,37.082,188.428,37.082 M170.718,35.646c-0.886,0-1.573-0.262-2.062-0.787
		c-0.487-0.523-0.732-1.211-0.732-2.061c0-0.814,0.204-1.546,0.611-2.197c0.406-0.651,0.998-1.312,1.775-1.98
		c0.054-0.054,0.1-0.054,0.136,0l2.251,3.174L174,33.665c0.036,0.055,0.036,0.108,0,0.162c-0.543,0.615-1.076,1.072-1.601,1.37
		S171.314,35.646,170.718,35.646 M171.07,19.644c0.597,0,1.084,0.217,1.465,0.651c0.38,0.434,0.569,1.013,0.569,1.736
		c0,0.723-0.204,1.374-0.61,1.952c-0.406,0.579-0.989,1.194-1.749,1.846c-0.055,0.053-0.1,0.045-0.136-0.029
		c-0.688-1.047-1.126-1.797-1.315-2.25c-0.19-0.451-0.285-0.931-0.285-1.437c0-0.76,0.189-1.36,0.57-1.804
		C169.959,19.865,170.456,19.644,171.07,19.644 M178.23,36.758l-2.007-2.875c-0.019-0.056-0.019-0.109,0-0.163
		c0.596-0.831,1.184-1.781,1.763-2.849c0.091-0.162,0.063-0.289-0.082-0.38l-1.029-0.596c-0.073-0.036-0.146-0.045-0.218-0.027
		c-0.072,0.019-0.127,0.063-0.162,0.136c-0.615,1.085-1.05,1.816-1.303,2.196c-0.018,0.019-0.045,0.027-0.081,0.027
		c-0.037,0-0.063-0.009-0.082-0.027l-1.681-2.387c-0.344-0.524-0.877-1.292-1.6-2.305c-0.037-0.072-0.027-0.117,0.026-0.137
		c1.048-0.885,1.854-1.722,2.414-2.507c0.561-0.787,0.84-1.731,0.84-2.834c0-1.23-0.375-2.229-1.125-2.997
		c-0.751-0.769-1.714-1.153-2.889-1.153s-2.124,0.38-2.847,1.139c-0.725,0.759-1.085,1.772-1.085,3.038
		c0,0.47,0.049,0.89,0.148,1.261c0.1,0.371,0.303,0.823,0.61,1.356c0.307,0.533,0.787,1.289,1.438,2.265
		c0.036,0.072,0.027,0.117-0.027,0.135c-1.013,0.851-1.809,1.723-2.386,2.617c-0.579,0.896-0.868,1.949-0.868,3.16
		c0,1.429,0.406,2.532,1.22,3.309c0.813,0.778,1.917,1.166,3.309,1.166c0.887,0,1.687-0.163,2.4-0.487
		c0.714-0.326,1.406-0.851,2.075-1.573c0.018-0.019,0.045-0.027,0.082-0.027c0.036,0,0.063,0.019,0.081,0.055l1.111,1.627
		c0.072,0.108,0.181,0.162,0.325,0.162h1.465c0.072,0,0.126-0.018,0.163-0.054c0.036-0.036,0.055-0.072,0.055-0.108
		C178.285,36.848,178.267,36.794,178.23,36.758 M149.97,31.197l1.546-8.571c0.018-0.054,0.045-0.081,0.082-0.081
		c0.036,0,0.063,0.027,0.081,0.081l1.573,8.571c0.018,0.09-0.027,0.135-0.137,0.135h-3.01
		C149.997,31.332,149.952,31.287,149.97,31.197 M154.635,37.082h2.521c0.199,0,0.3-0.08,0.3-0.243v-0.109l-4.015-18.334
		c-0.037-0.199-0.153-0.298-0.353-0.298h-2.875c-0.199,0-0.316,0.099-0.353,0.298l-4.014,18.334
		c-0.054,0.236,0.045,0.353,0.298,0.353h2.468c0.218,0,0.335-0.099,0.354-0.298l0.515-2.848c0-0.09,0.055-0.136,0.163-0.136h3.96
		c0.108,0,0.162,0.046,0.162,0.136l0.516,2.848C154.3,36.983,154.418,37.082,154.635,37.082 M134.484,37.082h8.815
		c0.09,0,0.167-0.03,0.23-0.095c0.064-0.063,0.095-0.14,0.095-0.229v-2.063c0-0.09-0.031-0.167-0.095-0.229
		c-0.063-0.063-0.14-0.096-0.23-0.096h-5.858c-0.091,0-0.136-0.045-0.136-0.136V18.422c0-0.09-0.032-0.167-0.095-0.23
		s-0.14-0.095-0.23-0.095h-2.496c-0.09,0-0.167,0.032-0.23,0.095c-0.064,0.063-0.095,0.14-0.095,0.23v18.335
		c0,0.09,0.031,0.167,0.095,0.229C134.317,37.052,134.394,37.082,134.484,37.082 M122.415,37.082h8.815
		c0.09,0,0.167-0.03,0.231-0.095c0.063-0.063,0.094-0.14,0.094-0.229v-2.063c0-0.09-0.031-0.167-0.094-0.229
		c-0.064-0.063-0.141-0.096-0.231-0.096h-5.858c-0.091,0-0.136-0.045-0.136-0.136V18.422c0-0.09-0.032-0.167-0.095-0.23
		s-0.14-0.095-0.23-0.095h-2.496c-0.09,0-0.167,0.032-0.23,0.095c-0.064,0.063-0.095,0.14-0.095,0.23v18.335
		c0,0.09,0.031,0.167,0.095,0.229C122.248,37.052,122.325,37.082,122.415,37.082 M111.947,31.197l1.546-8.571
		c0.017-0.054,0.045-0.081,0.081-0.081s0.063,0.027,0.081,0.081l1.573,8.571c0.018,0.09-0.027,0.135-0.135,0.135h-3.011
		C111.974,31.332,111.929,31.287,111.947,31.197 M116.612,37.082h2.522c0.199,0,0.298-0.08,0.298-0.243v-0.109l-4.014-18.334
		c-0.036-0.199-0.154-0.298-0.352-0.298h-2.875c-0.199,0-0.317,0.099-0.353,0.298l-4.014,18.334
		c-0.054,0.236,0.045,0.353,0.299,0.353h2.468c0.217,0,0.334-0.099,0.352-0.298l0.516-2.848c0-0.09,0.054-0.136,0.162-0.136h3.96
		c0.109,0,0.163,0.046,0.163,0.136l0.515,2.848C116.277,36.983,116.395,37.082,116.612,37.082 M102.021,18.422v7.649
		c0,0.09-0.046,0.135-0.136,0.135h-3.445c-0.09,0-0.135-0.045-0.135-0.135v-7.649c0-0.09-0.032-0.167-0.095-0.23
		c-0.064-0.063-0.14-0.095-0.231-0.095h-2.495c-0.09,0-0.167,0.032-0.23,0.095c-0.064,0.063-0.095,0.14-0.095,0.23v18.335
		c0,0.09,0.031,0.167,0.095,0.229c0.063,0.064,0.14,0.095,0.23,0.095h2.495c0.091,0,0.167-0.03,0.231-0.095
		c0.063-0.063,0.095-0.14,0.095-0.229v-7.677c0-0.09,0.045-0.135,0.135-0.135h3.445c0.09,0,0.136,0.045,0.136,0.135v7.677
		c0,0.09,0.031,0.167,0.094,0.229c0.064,0.064,0.14,0.095,0.231,0.095h2.495c0.09,0,0.167-0.03,0.231-0.095
		c0.063-0.063,0.095-0.14,0.095-0.229V18.422c0-0.09-0.032-0.167-0.095-0.23c-0.064-0.063-0.141-0.095-0.231-0.095h-2.495
		c-0.091,0-0.167,0.032-0.231,0.095C102.052,18.255,102.021,18.333,102.021,18.422 M86.724,37.3c1.555,0,2.803-0.465,3.743-1.397
		c0.94-0.931,1.41-2.165,1.41-3.702v-0.324c0-0.092-0.031-0.167-0.094-0.231c-0.064-0.063-0.141-0.095-0.231-0.095l-2.522-0.108
		c-0.091,0-0.168,0.032-0.231,0.095c-0.063,0.063-0.095,0.141-0.095,0.23v0.678c0,0.633-0.181,1.149-0.542,1.546
		c-0.362,0.398-0.841,0.598-1.438,0.598c-0.579,0-1.048-0.199-1.41-0.598c-0.362-0.396-0.542-0.913-0.542-1.546v-9.709
		c0-0.633,0.18-1.148,0.542-1.546c0.362-0.398,0.831-0.597,1.41-0.597c0.597,0,1.076,0.199,1.438,0.597
		c0.361,0.398,0.542,0.913,0.542,1.546v0.678c0,0.217,0.109,0.325,0.326,0.325l2.522-0.108c0.09,0,0.167-0.036,0.231-0.109
		c0.063-0.072,0.094-0.153,0.094-0.244v-0.325c0-1.555-0.47-2.789-1.41-3.702s-2.188-1.37-3.743-1.37
		c-1.537,0-2.771,0.457-3.702,1.37c-0.931,0.913-1.397,2.147-1.397,3.702V32.2c0,1.537,0.466,2.771,1.397,3.702
		C83.953,36.835,85.187,37.3,86.724,37.3 M75.388,37.082h2.495c0.09,0,0.167-0.03,0.23-0.095c0.063-0.063,0.095-0.14,0.095-0.229
		V18.422c0-0.09-0.032-0.167-0.095-0.23s-0.14-0.095-0.23-0.095h-2.495c-0.091,0-0.168,0.032-0.231,0.095
		c-0.064,0.063-0.095,0.14-0.095,0.23v18.335c0,0.09,0.031,0.167,0.095,0.229C75.22,37.052,75.297,37.082,75.388,37.082
		 M66.953,37.3c1.501,0,2.712-0.465,3.634-1.397c0.922-0.931,1.383-2.165,1.383-3.702c0-0.85-0.153-1.582-0.461-2.196
		c-0.307-0.614-0.741-1.181-1.301-1.695c-0.561-0.515-1.393-1.18-2.496-1.993c-1.084-0.796-1.813-1.419-2.183-1.872
		c-0.371-0.451-0.556-1.003-0.556-1.654c0-0.687,0.172-1.225,0.515-1.614c0.344-0.388,0.787-0.583,1.329-0.583
		c0.579,0,1.045,0.213,1.397,0.637c0.353,0.425,0.529,0.99,0.529,1.696v0.705c0,0.09,0.031,0.167,0.095,0.23
		c0.063,0.064,0.14,0.095,0.23,0.095h2.441c0.091,0,0.167-0.031,0.231-0.095c0.063-0.063,0.095-0.14,0.095-0.23v-0.651
		c0-1.537-0.461-2.771-1.383-3.702c-0.922-0.931-2.134-1.397-3.635-1.397c-1.482,0-2.676,0.443-3.58,1.329
		c-0.904,0.886-1.356,2.079-1.356,3.58c0,0.94,0.185,1.768,0.556,2.482c0.371,0.714,0.832,1.324,1.383,1.83
		c0.552,0.507,1.279,1.085,2.184,1.736c0.795,0.579,1.374,1.021,1.736,1.329c0.361,0.308,0.641,0.633,0.84,0.976
		c0.199,0.344,0.299,0.751,0.299,1.221c0,0.669-0.181,1.207-0.543,1.614c-0.362,0.406-0.823,0.61-1.383,0.61
		c-0.561,0-1.017-0.218-1.37-0.651c-0.352-0.434-0.529-1.004-0.529-1.709v-0.542c0-0.09-0.031-0.167-0.094-0.231
		c-0.064-0.063-0.141-0.095-0.231-0.095h-2.468c-0.091,0-0.167,0.032-0.231,0.095c-0.063,0.064-0.095,0.142-0.095,0.231v0.705
		c0,1.465,0.462,2.648,1.384,3.553C64.241,36.848,65.452,37.3,66.953,37.3"/>
</g>
</svg>
