<?xml version="1.0" encoding="UTF-8" standalone="no"?>
<svg
   id="Layer_1"
   data-name="Layer 1"
   viewBox="0 0 539.63999 111.54"
   version="1.1"
   sodipodi:docname="Sichall_Coll_Negativ_RGB.svg"
   width="539.64001"
   height="111.54"
   inkscape:version="1.2.2 (b0a84865, 2022-12-01)"
   xmlns:inkscape="http://www.inkscape.org/namespaces/inkscape"
   xmlns:sodipodi="http://sodipodi.sourceforge.net/DTD/sodipodi-0.dtd"
   xmlns="http://www.w3.org/2000/svg"
   xmlns:svg="http://www.w3.org/2000/svg">
  <sodipodi:namedview
     id="namedview498"
     pagecolor="#ffffff"
     bordercolor="#000000"
     borderopacity="0.25"
     inkscape:showpageshadow="2"
     inkscape:pageopacity="0.0"
     inkscape:pagecheckerboard="0"
     inkscape:deskcolor="#d1d1d1"
     showgrid="false"
     showborder="false"
     inkscape:zoom="2.088093"
     inkscape:cx="274.17361"
     inkscape:cy="57.229252"
     inkscape:window-width="1387"
     inkscape:window-height="1205"
     inkscape:window-x="0"
     inkscape:window-y="25"
     inkscape:window-maximized="0"
     inkscape:current-layer="Layer_1" />
  <defs
     id="defs423">
    <style
       id="style421">
      .cls-1 {
        fill: none;
      }

      .cls-2 {
        fill: #fff;
      }

      .cls-3 {
        fill: #cb694a;
      }
    </style>
  </defs>
  <path
     class="cls-2"
     d="m 50.75,9.5200009 c -22.82,0 -41.3899999,18.5700001 -41.3899999,41.3900001 0,22.82 18.5599999,41.39 41.3899999,41.39 22.83,0 41.39,-18.57 41.39,-41.39 0,-22.82 -18.57,-41.3900001 -41.39,-41.3900001 m 0,87.5200001 c -25.44,0 -46.1299999,-20.69 -46.1299999,-46.13 0,-25.44 20.6899999,-46.1300001 46.1299999,-46.1300001 25.44,0 46.13,20.6900001 46.13,46.1300001 0,25.44 -20.69,46.13 -46.13,46.13"
     id="path425" />
  <g
     id="g431"
     transform="translate(-23.58,-27.459999)">
    <path
       class="cls-2"
       d="m 55.72,72.96 c -6.63,23.19 26.57,15.74 27.39,23.72 0.38,3.69 -3.92,5.56 -7.37,5.56 -5.79,0 -13.47,-2.94 -14.97,-11.34 h -6.18 v 16.64 h 5.72 l 1.45,-3.03 c 9.89,5.88 31.55,6.35 33.05,-8.36 C 97.12,73.68 61.39,87.3 55.7,72.97"
       id="path427" />
    <path
       class="cls-3"
       d="m 53.9,60.63 c 0,22.26 31.39,9.38 39.67,22.26 6.47,-23.24 -26.47,-15.78 -27.94,-23.68 -0.8,-4.26 3.55,-5.56 7.37,-5.56 5.79,0 11.91,3.81 12.9,10.59 h 6.05 V 48.35 h -5.46 l -1.18,3.04 C 76.64,43.97 53.9,43.86 53.9,60.62"
       id="path429" />
  </g>
  <rect
     class="cls-1"
     x="0"
     y="0"
     width="101.66"
     height="101.88"
     id="rect433" />
  <rect
     class="cls-1"
     x="0"
     y="0"
     width="101.66"
     height="101.88"
     id="rect435" />
  <g
     id="g463"
     transform="translate(-23.58,-27.459999)">
    <path
       class="cls-2"
       d="m 246.98,138.67 c -0.62,0 -1.09,-0.13 -1.42,-0.38 -0.33,-0.25 -0.57,-0.59 -0.71,-1.01 -0.14,-0.42 -0.24,-0.88 -0.29,-1.38 -0.05,-0.5 -0.1,-1 -0.16,-1.5 -0.06,-0.5 -0.16,-0.96 -0.32,-1.38 -0.16,-0.42 -0.42,-0.76 -0.78,-1.01 -0.36,-0.25 -0.87,-0.38 -1.53,-0.38 h -3.12 c -0.23,0 -0.38,0.02 -0.45,0.06 -0.07,0.04 -0.1,0.18 -0.1,0.41 v 5.04 c 0,0.16 0.02,0.27 0.07,0.33 0.05,0.06 0.15,0.08 0.32,0.08 H 240 c 0.15,0 0.25,0.02 0.29,0.07 0.04,0.05 0.06,0.14 0.06,0.3 v 0.33 c 0,0.2 -0.04,0.32 -0.1,0.36 -0.07,0.04 -0.2,0.07 -0.39,0.07 h -5.59 c -0.15,0 -0.24,-0.02 -0.29,-0.07 -0.04,-0.05 -0.06,-0.15 -0.06,-0.29 v -0.31 c 0,-0.2 0.02,-0.32 0.07,-0.37 0.05,-0.05 0.17,-0.08 0.36,-0.08 h 1.37 c 0.2,0 0.33,-0.03 0.38,-0.09 0.05,-0.06 0.07,-0.19 0.07,-0.38 v -12.22 c 0,-0.14 -0.01,-0.23 -0.04,-0.29 -0.03,-0.05 -0.11,-0.08 -0.25,-0.08 h -1.63 c -0.11,0 -0.19,-0.03 -0.25,-0.08 -0.05,-0.06 -0.08,-0.14 -0.08,-0.25 v -0.45 c 0,-0.14 0.02,-0.23 0.04,-0.27 0.03,-0.05 0.11,-0.07 0.24,-0.07 h 7.77 c 1.23,0 2.22,0.18 2.97,0.55 0.75,0.37 1.29,0.86 1.63,1.48 0.34,0.62 0.5,1.3 0.5,2.05 0,0.79 -0.17,1.49 -0.52,2.08 -0.35,0.59 -0.96,1.04 -1.83,1.35 -0.16,0.06 -0.24,0.13 -0.26,0.23 -0.02,0.1 0.04,0.18 0.17,0.25 0.52,0.25 0.92,0.58 1.18,0.98 0.26,0.4 0.44,0.83 0.54,1.3 0.1,0.47 0.16,0.93 0.17,1.39 0.02,0.46 0.04,0.88 0.07,1.26 0.03,0.38 0.11,0.69 0.24,0.92 0.13,0.23 0.35,0.35 0.67,0.35 h 0.61 c 0.14,0 0.23,0.02 0.3,0.05 0.06,0.03 0.09,0.13 0.09,0.27 v 0.43 c 0,0.16 -0.02,0.26 -0.07,0.3 -0.05,0.04 -0.15,0.07 -0.3,0.07 h -1.16 z m -5,-8.27 c 0.52,0 1.01,-0.11 1.47,-0.32 0.47,-0.21 0.85,-0.54 1.14,-0.97 0.3,-0.44 0.44,-0.99 0.44,-1.66 0,-0.67 -0.15,-1.23 -0.44,-1.67 -0.3,-0.44 -0.68,-0.76 -1.14,-0.98 -0.47,-0.21 -0.96,-0.31 -1.47,-0.31 h -3.41 c -0.21,0 -0.34,0.03 -0.39,0.08 -0.05,0.06 -0.08,0.19 -0.08,0.41 v 4.9 c 0,0.25 0.04,0.4 0.12,0.45 0.08,0.05 0.24,0.08 0.47,0.08 h 3.29 z"
       id="path437" />
    <path
       class="cls-2"
       d="m 252.7,124.49 c -0.17,0 -0.27,-0.03 -0.31,-0.1 -0.04,-0.07 -0.06,-0.17 -0.06,-0.33 v -0.31 c 0,-0.16 0.02,-0.26 0.06,-0.31 0.04,-0.05 0.14,-0.08 0.29,-0.08 h 12.27 c 0.24,0 0.39,0.02 0.45,0.07 0.06,0.05 0.1,0.18 0.1,0.42 v 3.9 c 0,0.16 0,0.27 -0.01,0.33 0,0.05 -0.1,0.08 -0.27,0.08 h -0.41 c -0.15,0 -0.24,-0.03 -0.27,-0.1 -0.03,-0.06 -0.05,-0.16 -0.06,-0.29 -0.02,-0.83 -0.13,-1.48 -0.32,-1.96 -0.19,-0.48 -0.51,-0.82 -0.94,-1.02 -0.44,-0.2 -1.03,-0.3 -1.8,-0.3 h -4.45 c -0.18,0 -0.31,0.02 -0.36,0.08 -0.05,0.06 -0.09,0.17 -0.09,0.37 v 4.96 c 0,0.15 0.02,0.26 0.05,0.34 0.03,0.08 0.13,0.11 0.3,0.11 h 1.39 c 0.82,0 1.42,-0.19 1.8,-0.56 0.38,-0.37 0.6,-0.86 0.64,-1.46 0.01,-0.14 0.04,-0.22 0.07,-0.27 0.03,-0.04 0.1,-0.06 0.2,-0.06 h 0.34 c 0.12,0 0.2,0.02 0.25,0.07 0.05,0.04 0.07,0.12 0.07,0.24 v 4.9 c 0,0.16 -0.02,0.27 -0.05,0.33 -0.04,0.06 -0.13,0.08 -0.28,0.08 h -0.34 c -0.06,0 -0.12,-0.02 -0.17,-0.06 -0.05,-0.04 -0.09,-0.14 -0.1,-0.29 -0.03,-0.4 -0.14,-0.76 -0.32,-1.08 -0.18,-0.31 -0.44,-0.56 -0.78,-0.75 -0.35,-0.18 -0.79,-0.28 -1.33,-0.28 h -1.35 c -0.18,0 -0.29,0.03 -0.33,0.09 -0.04,0.06 -0.06,0.18 -0.06,0.36 v 5.49 c 0,0.19 0.02,0.31 0.08,0.37 0.06,0.06 0.17,0.08 0.37,0.08 h 4.25 c 0.9,0 1.59,-0.11 2.09,-0.33 0.5,-0.22 0.85,-0.6 1.05,-1.14 0.2,-0.54 0.31,-1.31 0.33,-2.29 0,-0.14 0.02,-0.22 0.06,-0.27 0.04,-0.04 0.1,-0.06 0.19,-0.06 h 0.39 c 0.13,0 0.23,0.02 0.29,0.05 0.06,0.03 0.1,0.12 0.1,0.25 v 4.55 c 0,0.14 -0.02,0.24 -0.06,0.28 -0.04,0.04 -0.13,0.07 -0.26,0.07 h -12.63 c -0.15,0 -0.25,-0.02 -0.32,-0.06 -0.06,-0.04 -0.09,-0.14 -0.09,-0.31 v -0.47 c 0,-0.14 0.03,-0.22 0.08,-0.25 0.06,-0.03 0.15,-0.04 0.29,-0.04 h 1.33 c 0.25,0 0.41,-0.03 0.46,-0.1 0.05,-0.07 0.09,-0.22 0.09,-0.47 V 124.9 c 0,-0.21 -0.03,-0.33 -0.09,-0.37 -0.06,-0.04 -0.2,-0.06 -0.41,-0.06 h -1.38 z"
       id="path439" />
    <path
       class="cls-2"
       d="m 271.02,127.88 c 0.41,-0.96 0.98,-1.79 1.71,-2.49 0.72,-0.7 1.55,-1.25 2.48,-1.64 0.93,-0.39 1.92,-0.58 2.95,-0.58 1.03,0 1.86,0.18 2.62,0.54 0.76,0.36 1.4,0.82 1.91,1.36 0.1,0.11 0.18,0.16 0.23,0.14 0.05,-0.01 0.11,-0.12 0.16,-0.31 l 0.43,-1.46 c 0.02,-0.08 0.04,-0.12 0.05,-0.15 0.01,-0.03 0.07,-0.04 0.16,-0.04 h 0.55 c 0.09,0 0.14,0.01 0.17,0.04 0.03,0.03 0.04,0.08 0.04,0.16 v 4.85 c 0,0.11 -0.02,0.18 -0.06,0.21 -0.04,0.03 -0.12,0.05 -0.23,0.05 h -0.62 c -0.13,0 -0.2,-0.02 -0.2,-0.07 0,-0.05 -0.02,-0.12 -0.04,-0.23 -0.12,-0.66 -0.4,-1.29 -0.84,-1.89 -0.45,-0.6 -1.03,-1.09 -1.74,-1.47 -0.72,-0.38 -1.54,-0.57 -2.47,-0.57 -1.18,0 -2.19,0.3 -3,0.89 -0.82,0.6 -1.44,1.4 -1.87,2.41 -0.43,1.01 -0.64,2.13 -0.64,3.37 0,1.24 0.19,2.36 0.59,3.37 0.39,1.01 0.98,1.81 1.76,2.4 0.79,0.59 1.77,0.89 2.95,0.89 1.09,0 2.04,-0.23 2.82,-0.7 0.79,-0.47 1.4,-1.08 1.86,-1.82 0.45,-0.75 0.72,-1.52 0.81,-2.33 0,-0.06 0.03,-0.1 0.06,-0.13 0.03,-0.02 0.08,-0.04 0.15,-0.04 h 0.72 c 0.07,0 0.13,0 0.17,0.02 0.04,0.02 0.05,0.06 0.04,0.12 -0.08,1.16 -0.4,2.19 -0.97,3.11 -0.56,0.92 -1.34,1.64 -2.33,2.17 -0.99,0.53 -2.16,0.8 -3.53,0.8 -1.09,0 -2.09,-0.19 -3,-0.58 -0.91,-0.39 -1.69,-0.93 -2.36,-1.64 -0.67,-0.7 -1.18,-1.54 -1.55,-2.5 -0.36,-0.96 -0.54,-2.01 -0.54,-3.14 0,-1.13 0.21,-2.18 0.62,-3.14 z"
       id="path441" />
    <path
       class="cls-2"
       d="m 293.2,129.61 c 0,0.26 0.03,0.42 0.09,0.49 0.06,0.07 0.22,0.1 0.5,0.1 h 7.04 c 0.27,0 0.42,-0.04 0.47,-0.12 0.05,-0.08 0.07,-0.26 0.07,-0.53 v -4.53 c 0,-0.22 -0.02,-0.36 -0.06,-0.43 -0.04,-0.07 -0.17,-0.1 -0.38,-0.1 h -1.66 c -0.14,0 -0.24,-0.04 -0.28,-0.1 -0.04,-0.07 -0.07,-0.17 -0.07,-0.3 v -0.3 c 0,-0.18 0.02,-0.3 0.07,-0.35 0.05,-0.05 0.16,-0.08 0.34,-0.08 h 5.82 c 0.16,0 0.27,0.02 0.33,0.06 0.05,0.04 0.08,0.15 0.08,0.33 v 0.39 c 0,0.14 -0.03,0.24 -0.08,0.28 -0.06,0.04 -0.16,0.07 -0.32,0.07 h -1.29 c -0.22,0 -0.37,0.02 -0.45,0.07 -0.07,0.04 -0.11,0.18 -0.11,0.4 v 12.24 c 0,0.14 0.02,0.24 0.08,0.28 0.06,0.04 0.15,0.07 0.3,0.07 h 1.47 c 0.14,0 0.24,0.02 0.3,0.05 0.06,0.03 0.1,0.13 0.1,0.27 v 0.35 c 0,0.21 -0.04,0.34 -0.11,0.38 -0.07,0.04 -0.21,0.07 -0.4,0.07 h -5.71 c -0.18,0 -0.3,-0.03 -0.34,-0.08 -0.04,-0.05 -0.07,-0.18 -0.07,-0.37 v -0.31 c 0,-0.14 0.02,-0.24 0.05,-0.29 0.03,-0.05 0.12,-0.08 0.25,-0.08 h 1.73 c 0.2,0 0.32,-0.04 0.36,-0.11 0.04,-0.07 0.07,-0.21 0.07,-0.4 v -5.22 c 0,-0.22 -0.03,-0.35 -0.1,-0.41 -0.07,-0.06 -0.2,-0.08 -0.41,-0.08 h -7.18 c -0.2,0 -0.33,0.02 -0.39,0.07 -0.06,0.05 -0.09,0.16 -0.09,0.36 v 5.39 c 0,0.16 0.02,0.26 0.07,0.32 0.05,0.06 0.15,0.09 0.32,0.09 h 1.73 c 0.14,0 0.23,0.02 0.27,0.06 0.04,0.04 0.07,0.14 0.07,0.29 v 0.26 c 0,0.23 -0.03,0.37 -0.09,0.43 -0.06,0.06 -0.2,0.08 -0.43,0.08 h -5.71 c -0.17,0 -0.28,-0.02 -0.33,-0.07 -0.05,-0.05 -0.08,-0.16 -0.08,-0.34 v -0.29 c 0,-0.18 0.02,-0.3 0.08,-0.35 0.06,-0.05 0.17,-0.08 0.34,-0.08 h 1.41 c 0.16,0 0.27,-0.02 0.33,-0.05 0.06,-0.04 0.09,-0.13 0.09,-0.3 v -12.32 c 0,-0.16 -0.03,-0.27 -0.08,-0.32 -0.05,-0.05 -0.16,-0.08 -0.31,-0.08 h -1.49 c -0.17,0 -0.27,-0.04 -0.31,-0.1 -0.04,-0.07 -0.05,-0.19 -0.05,-0.37 v -0.27 c 0,-0.16 0.03,-0.27 0.09,-0.32 0.06,-0.05 0.17,-0.07 0.32,-0.07 h 5.82 c 0.14,0 0.24,0.02 0.31,0.05 0.07,0.03 0.1,0.13 0.1,0.27 v 0.41 c 0,0.16 -0.02,0.27 -0.07,0.31 -0.05,0.04 -0.15,0.07 -0.31,0.07 h -1.67 c -0.17,0 -0.28,0.03 -0.33,0.08 -0.05,0.06 -0.07,0.17 -0.07,0.36 v 4.68 z"
       id="path443" />
    <path
       class="cls-2"
       d="m 313.45,137.91 c 0,-0.16 0.04,-0.26 0.1,-0.3 0.07,-0.04 0.18,-0.06 0.33,-0.06 h 1.67 c 0.24,0 0.4,-0.03 0.46,-0.09 0.06,-0.06 0.09,-0.22 0.09,-0.47 v -12.14 c 0,-0.2 -0.03,-0.32 -0.08,-0.38 -0.06,-0.05 -0.18,-0.08 -0.37,-0.08 h -0.98 c -0.89,0 -1.59,0.11 -2.08,0.34 -0.49,0.23 -0.85,0.62 -1.05,1.16 -0.2,0.55 -0.32,1.3 -0.34,2.26 0,0.16 -0.03,0.27 -0.07,0.33 -0.04,0.06 -0.15,0.09 -0.32,0.09 h -0.29 c -0.17,0 -0.27,-0.05 -0.3,-0.15 -0.03,-0.1 -0.05,-0.22 -0.05,-0.37 v -4.14 c 0,-0.24 0.02,-0.39 0.07,-0.45 0.05,-0.06 0.19,-0.09 0.42,-0.09 h 12.86 c 0.2,0 0.32,0.03 0.36,0.09 0.04,0.06 0.07,0.19 0.07,0.39 v 4.41 c 0,0.15 -0.03,0.24 -0.08,0.27 -0.05,0.03 -0.16,0.05 -0.31,0.05 h -0.24 c -0.19,0 -0.3,-0.04 -0.34,-0.12 -0.04,-0.08 -0.06,-0.2 -0.06,-0.36 -0.02,-0.95 -0.14,-1.69 -0.34,-2.22 -0.21,-0.54 -0.56,-0.92 -1.05,-1.14 -0.49,-0.23 -1.18,-0.34 -2.07,-0.34 h -1.04 c -0.18,0 -0.29,0.03 -0.33,0.08 -0.04,0.06 -0.06,0.17 -0.06,0.36 v 12.14 c 0,0.26 0.03,0.42 0.09,0.48 0.06,0.06 0.21,0.1 0.47,0.1 h 1.67 c 0.2,0 0.33,0.03 0.37,0.09 0.04,0.06 0.06,0.2 0.06,0.41 v 0.19 c 0,0.2 -0.05,0.33 -0.16,0.37 -0.11,0.04 -0.25,0.06 -0.43,0.06 h -6.18 c -0.2,0 -0.32,-0.02 -0.38,-0.07 -0.06,-0.04 -0.09,-0.16 -0.09,-0.35 z"
       id="path445" />
    <path
       class="cls-2"
       d="m 337.24,126.03 c -0.35,-0.57 -0.81,-1.01 -1.39,-1.34 -0.58,-0.32 -1.24,-0.48 -1.97,-0.48 -1.18,0 -2.02,0.24 -2.52,0.73 -0.5,0.49 -0.74,1.09 -0.74,1.8 0,0.61 0.16,1.1 0.48,1.47 0.32,0.36 0.75,0.65 1.28,0.86 0.54,0.21 1.12,0.4 1.76,0.56 0.64,0.16 1.28,0.34 1.92,0.54 0.64,0.2 1.22,0.46 1.76,0.79 0.53,0.33 0.96,0.76 1.28,1.31 0.32,0.55 0.48,1.26 0.48,2.14 0,0.95 -0.22,1.77 -0.65,2.46 -0.43,0.69 -1.06,1.21 -1.88,1.58 -0.82,0.37 -1.82,0.55 -2.98,0.55 -0.77,0 -1.49,-0.14 -2.15,-0.4 -0.66,-0.27 -1.23,-0.61 -1.69,-1.02 -0.15,-0.14 -0.25,-0.2 -0.32,-0.18 -0.06,0.01 -0.13,0.12 -0.21,0.33 l -0.31,0.79 c -0.06,0.14 -0.11,0.22 -0.16,0.24 -0.05,0.03 -0.17,0.04 -0.37,0.04 h -0.32 c -0.16,0 -0.26,-0.02 -0.31,-0.06 -0.05,-0.04 -0.08,-0.14 -0.08,-0.29 v -4.67 c 0,-0.14 0.03,-0.23 0.09,-0.25 0.06,-0.02 0.16,-0.04 0.3,-0.04 h 0.43 c 0.14,0 0.22,0.03 0.26,0.09 0.04,0.06 0.06,0.14 0.07,0.26 0.06,0.65 0.28,1.29 0.65,1.92 0.37,0.63 0.89,1.16 1.55,1.58 0.66,0.42 1.45,0.63 2.38,0.63 0.93,0 1.67,-0.16 2.24,-0.47 0.57,-0.31 0.98,-0.7 1.24,-1.17 0.26,-0.47 0.39,-0.94 0.39,-1.41 0,-0.67 -0.16,-1.21 -0.48,-1.61 -0.32,-0.4 -0.75,-0.72 -1.29,-0.95 -0.53,-0.23 -1.12,-0.43 -1.76,-0.59 -0.64,-0.16 -1.28,-0.33 -1.92,-0.51 -0.64,-0.18 -1.23,-0.42 -1.76,-0.72 -0.53,-0.29 -0.96,-0.7 -1.29,-1.2 -0.33,-0.5 -0.48,-1.16 -0.48,-1.98 0,-0.72 0.13,-1.33 0.38,-1.86 0.26,-0.52 0.61,-0.96 1.06,-1.31 0.45,-0.35 0.97,-0.6 1.57,-0.77 0.59,-0.17 1.22,-0.25 1.89,-0.25 0.67,0 1.25,0.1 1.82,0.31 0.57,0.21 1.06,0.49 1.46,0.84 0.12,0.1 0.21,0.16 0.3,0.16 0.09,0 0.16,-0.08 0.23,-0.27 l 0.32,-0.72 c 0.03,-0.06 0.05,-0.09 0.08,-0.1 0.03,-0.01 0.08,-0.02 0.16,-0.02 h 0.65 c 0.13,0 0.21,0.02 0.24,0.07 0.03,0.05 0.05,0.13 0.05,0.27 v 4.4 c 0,0.13 -0.03,0.21 -0.08,0.23 -0.05,0.02 -0.14,0.04 -0.27,0.04 h -0.45 c -0.18,0 -0.28,-0.02 -0.3,-0.06 -0.01,-0.04 -0.03,-0.15 -0.04,-0.32 -0.06,-0.74 -0.26,-1.4 -0.61,-1.96 z"
       id="path447" />
    <path
       class="cls-2"
       d="m 342.1,137.82 c 0,-0.1 0.02,-0.17 0.06,-0.21 0.04,-0.04 0.12,-0.06 0.22,-0.06 h 1.29 c 0.22,0 0.36,-0.03 0.43,-0.1 0.07,-0.07 0.13,-0.17 0.19,-0.31 l 6.05,-13.98 c 0,0 0.04,-0.08 0.07,-0.09 0.03,0 0.07,-0.01 0.14,-0.01 h 0.82 c 0.08,0 0.14,0 0.18,0.02 0.04,0.02 0.07,0.05 0.09,0.1 l 5.54,13.92 c 0.07,0.16 0.12,0.28 0.16,0.35 0.04,0.07 0.18,0.1 0.41,0.1 h 1.61 c 0.14,0 0.22,0.02 0.24,0.06 0.03,0.04 0.04,0.12 0.04,0.26 v 0.45 c 0,0.16 -0.02,0.26 -0.05,0.3 -0.03,0.04 -0.12,0.06 -0.28,0.06 h -6.02 c -0.13,0 -0.23,-0.02 -0.29,-0.05 -0.06,-0.04 -0.1,-0.13 -0.1,-0.28 v -0.47 c 0,-0.14 0.03,-0.23 0.09,-0.27 0.06,-0.04 0.15,-0.06 0.28,-0.06 h 1.55 c 0.16,0 0.24,-0.04 0.23,-0.11 -0.01,-0.07 -0.03,-0.16 -0.06,-0.25 l -0.92,-2.45 c -0.09,-0.23 -0.16,-0.38 -0.22,-0.45 -0.06,-0.07 -0.25,-0.1 -0.58,-0.1 h -5.92 c -0.23,0 -0.39,0.03 -0.47,0.09 -0.08,0.06 -0.15,0.17 -0.22,0.32 l -1.05,2.47 c -0.07,0.16 -0.09,0.29 -0.06,0.37 0.03,0.08 0.15,0.12 0.38,0.12 h 1.54 c 0.12,0 0.21,0.02 0.25,0.06 0.05,0.04 0.07,0.12 0.07,0.25 v 0.49 c 0,0.16 -0.01,0.26 -0.04,0.29 -0.03,0.03 -0.12,0.04 -0.29,0.04 h -4.88 c -0.19,0 -0.32,-0.02 -0.4,-0.06 -0.08,-0.04 -0.11,-0.16 -0.11,-0.37 v -0.43 z m 5.35,-5.04 c -0.05,0.12 -0.06,0.2 -0.03,0.23 0.03,0.04 0.13,0.05 0.32,0.05 h 5.16 c 0.31,0 0.48,-0.02 0.49,-0.07 0.02,-0.05 -0.02,-0.18 -0.1,-0.4 l -2.53,-6.73 c -0.08,-0.2 -0.13,-0.31 -0.16,-0.32 -0.04,0 -0.09,0.08 -0.16,0.25 l -2.98,6.98 z"
       id="path449" />
    <path
       class="cls-2"
       d="m 362.74,124.49 c -0.15,0 -0.24,-0.03 -0.29,-0.08 -0.04,-0.05 -0.06,-0.14 -0.06,-0.28 v -0.31 c 0,-0.18 0.02,-0.3 0.05,-0.36 0.03,-0.07 0.14,-0.1 0.32,-0.1 h 3.1 c 0.39,0 0.64,0.04 0.75,0.12 0.11,0.08 0.24,0.23 0.39,0.44 l 8.06,10.58 c 0.14,0.18 0.25,0.24 0.35,0.19 0.1,-0.05 0.14,-0.28 0.14,-0.69 v -9.04 c 0,-0.22 -0.03,-0.36 -0.1,-0.41 -0.07,-0.05 -0.21,-0.07 -0.43,-0.07 h -1 c -0.15,0 -0.31,-0.01 -0.47,-0.03 -0.16,-0.02 -0.25,-0.12 -0.25,-0.29 v -0.23 c 0,-0.2 0.03,-0.35 0.09,-0.44 0.06,-0.09 0.19,-0.14 0.4,-0.14 h 4.71 c 0.13,0 0.25,0.01 0.35,0.04 0.11,0.02 0.16,0.11 0.16,0.26 v 0.38 c 0,0.17 -0.02,0.29 -0.05,0.35 -0.04,0.06 -0.14,0.1 -0.32,0.1 h -1.29 c -0.21,0 -0.35,0.03 -0.4,0.09 -0.05,0.06 -0.09,0.2 -0.09,0.43 v 13.41 c 0,0.12 -0.01,0.23 -0.04,0.32 -0.03,0.09 -0.11,0.14 -0.25,0.14 h -0.06 c -0.16,0 -0.27,-0.02 -0.35,-0.06 -0.08,-0.04 -0.15,-0.1 -0.21,-0.19 l -9.58,-12.45 c -0.15,-0.2 -0.27,-0.27 -0.38,-0.23 -0.1,0.04 -0.15,0.32 -0.15,0.82 v 10.35 c 0,0.19 0.03,0.31 0.08,0.36 0.05,0.05 0.17,0.08 0.37,0.08 h 1.55 c 0.16,0 0.25,0.03 0.29,0.1 0.04,0.06 0.06,0.17 0.06,0.32 v 0.31 c 0,0.18 -0.03,0.29 -0.09,0.33 -0.06,0.04 -0.17,0.07 -0.34,0.07 h -4.96 c -0.18,0 -0.29,-0.02 -0.35,-0.06 -0.06,-0.04 -0.08,-0.15 -0.08,-0.32 v -0.37 c 0,-0.17 0.04,-0.28 0.12,-0.32 0.08,-0.04 0.19,-0.06 0.35,-0.06 h 1.11 c 0.24,0 0.39,-0.03 0.46,-0.09 0.07,-0.06 0.1,-0.2 0.1,-0.43 v -12.04 c 0,-0.24 -0.04,-0.38 -0.11,-0.43 -0.07,-0.05 -0.23,-0.07 -0.47,-0.07 h -1.22 z"
       id="path451" />
    <path
       class="cls-2"
       d="m 392.92,126.88 c 0.07,-0.22 0.13,-0.4 0.17,-0.54 0.04,-0.14 0.02,-0.33 -0.05,-0.56 l -0.3,-0.9 c -0.05,-0.16 -0.11,-0.26 -0.18,-0.31 -0.07,-0.05 -0.21,-0.08 -0.42,-0.08 h -0.9 c -0.18,0 -0.28,-0.03 -0.32,-0.09 -0.04,-0.06 -0.06,-0.18 -0.06,-0.36 v -0.18 c 0,-0.22 0.03,-0.35 0.08,-0.41 0.05,-0.06 0.19,-0.08 0.4,-0.08 h 4.86 c 0.16,0 0.26,0.02 0.31,0.07 0.05,0.05 0.07,0.15 0.07,0.32 v 0.27 c 0,0.23 -0.05,0.37 -0.15,0.41 -0.1,0.04 -0.26,0.06 -0.47,0.06 h -0.59 c -0.27,0 -0.45,0.03 -0.54,0.09 -0.09,0.06 -0.1,0.19 -0.03,0.41 l 2.86,9.54 c 0.05,0.16 0.09,0.34 0.12,0.54 0.03,0.19 0.07,0.36 0.11,0.5 0.04,0.14 0.08,0.21 0.12,0.21 0.05,0 0.1,-0.03 0.15,-0.09 0.05,-0.06 0.11,-0.2 0.18,-0.42 l 3.48,-10.45 c 0.06,-0.16 0.08,-0.25 0.07,-0.28 0,-0.03 -0.12,-0.04 -0.34,-0.04 h -1.51 c -0.18,0 -0.28,-0.03 -0.32,-0.09 -0.04,-0.06 -0.06,-0.18 -0.06,-0.36 v -0.16 c 0,-0.21 0.02,-0.35 0.06,-0.41 0.04,-0.07 0.17,-0.1 0.38,-0.1 h 4.77 c 0.2,0 0.34,0.02 0.4,0.06 0.06,0.04 0.1,0.16 0.1,0.37 v 0.25 c 0,0.2 -0.03,0.32 -0.08,0.37 -0.05,0.05 -0.18,0.08 -0.38,0.08 h -1.41 c -0.22,0 -0.35,0.02 -0.38,0.08 -0.03,0.06 -0.08,0.16 -0.14,0.31 l -4.56,13.71 c -0.05,0.13 -0.09,0.21 -0.13,0.24 -0.04,0.03 -0.14,0.05 -0.32,0.05 h -0.43 c -0.18,0 -0.3,-0.03 -0.36,-0.08 -0.05,-0.05 -0.1,-0.15 -0.15,-0.29 l -2.71,-8.67 c -0.07,-0.22 -0.13,-0.45 -0.18,-0.7 -0.05,-0.25 -0.1,-0.47 -0.15,-0.65 -0.05,-0.18 -0.12,-0.27 -0.19,-0.27 -0.1,0 -0.23,0.2 -0.38,0.6 l -3.51,9.65 c -0.06,0.16 -0.1,0.26 -0.14,0.32 -0.04,0.06 -0.18,0.09 -0.41,0.09 h -0.43 c -0.19,0 -0.31,-0.04 -0.38,-0.11 -0.06,-0.07 -0.12,-0.17 -0.16,-0.3 l -4.77,-13.57 c -0.06,-0.17 -0.13,-0.28 -0.21,-0.33 -0.08,-0.05 -0.23,-0.08 -0.46,-0.08 h -1.24 c -0.18,0 -0.29,-0.02 -0.34,-0.07 -0.05,-0.05 -0.08,-0.15 -0.08,-0.32 v -0.27 c 0,-0.2 0.02,-0.33 0.07,-0.39 0.05,-0.06 0.17,-0.08 0.37,-0.08 h 5.74 c 0.19,0 0.33,0.03 0.42,0.1 0.09,0.07 0.14,0.2 0.14,0.41 v 0.25 c 0,0.16 -0.04,0.26 -0.11,0.3 -0.08,0.04 -0.19,0.06 -0.35,0.06 h -1.37 c -0.29,0 -0.46,0.04 -0.5,0.12 -0.04,0.08 -0.03,0.21 0.04,0.41 l 3.14,9.29 c 0.08,0.21 0.14,0.45 0.19,0.7 0.06,0.26 0.11,0.48 0.17,0.67 0.06,0.19 0.13,0.28 0.21,0.28 0.06,0 0.11,-0.04 0.17,-0.13 0.06,-0.09 0.12,-0.23 0.2,-0.44 l 3.11,-8.51 z"
       id="path453" />
    <path
       class="cls-2"
       d="m 404.78,137.82 c 0,-0.1 0.02,-0.17 0.06,-0.21 0.04,-0.04 0.12,-0.06 0.22,-0.06 h 1.29 c 0.22,0 0.36,-0.03 0.43,-0.1 0.07,-0.07 0.13,-0.17 0.19,-0.31 l 6.05,-13.98 c 0,0 0.04,-0.08 0.07,-0.09 0.03,0 0.07,-0.01 0.14,-0.01 h 0.82 c 0.08,0 0.14,0 0.18,0.02 0.04,0.02 0.07,0.05 0.09,0.1 l 5.54,13.92 c 0.07,0.16 0.12,0.28 0.16,0.35 0.04,0.07 0.18,0.1 0.41,0.1 h 1.61 c 0.14,0 0.22,0.02 0.24,0.06 0.03,0.04 0.04,0.12 0.04,0.26 v 0.45 c 0,0.16 -0.02,0.26 -0.05,0.3 -0.03,0.04 -0.12,0.06 -0.28,0.06 h -6.02 c -0.13,0 -0.23,-0.02 -0.29,-0.05 -0.06,-0.04 -0.1,-0.13 -0.1,-0.28 v -0.47 c 0,-0.14 0.03,-0.23 0.09,-0.27 0.06,-0.04 0.15,-0.06 0.28,-0.06 h 1.55 c 0.16,0 0.24,-0.04 0.23,-0.11 -0.01,-0.07 -0.03,-0.16 -0.06,-0.25 l -0.92,-2.45 c -0.09,-0.23 -0.16,-0.38 -0.22,-0.45 -0.06,-0.07 -0.25,-0.1 -0.58,-0.1 h -5.92 c -0.23,0 -0.39,0.03 -0.47,0.09 -0.08,0.06 -0.15,0.17 -0.22,0.32 l -1.05,2.47 c -0.07,0.16 -0.09,0.29 -0.06,0.37 0.03,0.08 0.15,0.12 0.38,0.12 h 1.54 c 0.12,0 0.21,0.02 0.25,0.06 0.05,0.04 0.07,0.12 0.07,0.25 v 0.49 c 0,0.16 -0.01,0.26 -0.04,0.29 -0.03,0.03 -0.12,0.04 -0.29,0.04 h -4.88 c -0.19,0 -0.32,-0.02 -0.4,-0.06 -0.08,-0.04 -0.11,-0.16 -0.11,-0.37 v -0.43 z m 5.35,-5.04 c -0.05,0.12 -0.06,0.2 -0.03,0.23 0.03,0.04 0.13,0.05 0.32,0.05 h 5.16 c 0.31,0 0.48,-0.02 0.49,-0.07 0.02,-0.05 -0.02,-0.18 -0.1,-0.4 l -2.53,-6.73 c -0.08,-0.2 -0.13,-0.31 -0.16,-0.32 -0.04,0 -0.09,0.08 -0.16,0.25 l -2.98,6.98 z m 1.13,-11.63 c -0.19,-0.19 -0.29,-0.42 -0.29,-0.69 0,-0.27 0.1,-0.5 0.29,-0.7 0.19,-0.19 0.42,-0.29 0.69,-0.29 0.27,0 0.5,0.1 0.7,0.29 0.19,0.19 0.29,0.43 0.29,0.7 0,0.27 -0.1,0.5 -0.29,0.69 -0.19,0.19 -0.42,0.29 -0.7,0.29 -0.28,0 -0.5,-0.1 -0.69,-0.29 z m 3.27,0 c -0.19,-0.19 -0.29,-0.42 -0.29,-0.69 0,-0.27 0.1,-0.5 0.29,-0.7 0.19,-0.19 0.42,-0.29 0.69,-0.29 0.27,0 0.5,0.1 0.69,0.29 0.19,0.19 0.29,0.43 0.29,0.7 0,0.27 -0.1,0.5 -0.29,0.69 -0.19,0.19 -0.42,0.29 -0.69,0.29 -0.27,0 -0.5,-0.1 -0.69,-0.29 z"
       id="path455" />
    <path
       class="cls-2"
       d="m 425.35,124.49 c -0.13,0 -0.21,-0.02 -0.25,-0.07 -0.04,-0.04 -0.06,-0.14 -0.06,-0.28 v -0.48 c 0,-0.13 0.02,-0.21 0.07,-0.24 0.05,-0.04 0.14,-0.05 0.27,-0.05 h 5.67 c 0.16,0 0.27,0.02 0.33,0.05 0.06,0.03 0.09,0.13 0.09,0.29 v 0.43 c 0,0.15 -0.03,0.25 -0.08,0.29 -0.05,0.04 -0.14,0.06 -0.28,0.06 h -1.47 c -0.15,0 -0.26,0.02 -0.32,0.07 -0.07,0.05 -0.1,0.16 -0.1,0.33 v 12.34 c 0,0.15 0.03,0.24 0.1,0.28 0.07,0.03 0.18,0.05 0.33,0.05 h 4.16 c 0.91,0 1.62,-0.14 2.11,-0.41 0.5,-0.27 0.85,-0.69 1.05,-1.26 0.2,-0.56 0.3,-1.27 0.31,-2.13 0,-0.1 0.01,-0.17 0.04,-0.21 0.02,-0.05 0.08,-0.07 0.18,-0.07 h 0.43 c 0.14,0 0.23,0.01 0.29,0.04 0.06,0.03 0.09,0.11 0.09,0.25 v 4.45 c 0,0.19 -0.02,0.32 -0.06,0.38 -0.04,0.06 -0.15,0.09 -0.34,0.09 h -12.43 c -0.16,0 -0.27,-0.02 -0.34,-0.06 -0.07,-0.04 -0.1,-0.14 -0.1,-0.31 v -0.43 c 0,-0.12 0.01,-0.21 0.04,-0.25 0.03,-0.05 0.1,-0.07 0.21,-0.07 h 1.51 c 0.2,0 0.33,-0.02 0.39,-0.06 0.06,-0.04 0.09,-0.16 0.09,-0.35 v -12.27 c 0,-0.17 -0.03,-0.28 -0.08,-0.32 -0.05,-0.04 -0.17,-0.07 -0.35,-0.07 h -1.5 z"
       id="path457" />
    <path
       class="cls-2"
       d="m 444.34,137.91 c 0,-0.16 0.04,-0.26 0.1,-0.3 0.07,-0.04 0.18,-0.06 0.33,-0.06 h 1.67 c 0.24,0 0.4,-0.03 0.46,-0.09 0.06,-0.06 0.09,-0.22 0.09,-0.47 v -12.14 c 0,-0.2 -0.03,-0.32 -0.08,-0.38 -0.06,-0.05 -0.18,-0.08 -0.37,-0.08 h -0.98 c -0.89,0 -1.59,0.11 -2.08,0.34 -0.49,0.23 -0.85,0.62 -1.05,1.16 -0.2,0.55 -0.32,1.3 -0.34,2.26 0,0.16 -0.03,0.27 -0.07,0.33 -0.04,0.06 -0.15,0.09 -0.32,0.09 h -0.29 c -0.17,0 -0.27,-0.05 -0.3,-0.15 -0.03,-0.1 -0.05,-0.22 -0.05,-0.37 v -4.14 c 0,-0.24 0.02,-0.39 0.07,-0.45 0.05,-0.06 0.19,-0.09 0.42,-0.09 h 12.86 c 0.2,0 0.32,0.03 0.36,0.09 0.04,0.06 0.07,0.19 0.07,0.39 v 4.41 c 0,0.15 -0.03,0.24 -0.08,0.27 -0.05,0.03 -0.16,0.05 -0.31,0.05 h -0.24 c -0.19,0 -0.3,-0.04 -0.34,-0.12 -0.04,-0.08 -0.06,-0.2 -0.06,-0.36 -0.02,-0.95 -0.14,-1.69 -0.34,-2.22 -0.21,-0.54 -0.56,-0.92 -1.05,-1.14 -0.49,-0.23 -1.18,-0.34 -2.07,-0.34 h -1.04 c -0.18,0 -0.29,0.03 -0.33,0.08 -0.04,0.06 -0.06,0.17 -0.06,0.36 v 12.14 c 0,0.26 0.03,0.42 0.09,0.48 0.06,0.06 0.21,0.1 0.47,0.1 h 1.67 c 0.2,0 0.33,0.03 0.37,0.09 0.04,0.06 0.06,0.2 0.06,0.41 v 0.19 c 0,0.2 -0.05,0.33 -0.16,0.37 -0.11,0.04 -0.25,0.06 -0.43,0.06 h -6.18 c -0.2,0 -0.32,-0.02 -0.38,-0.07 -0.06,-0.04 -0.09,-0.16 -0.09,-0.35 z"
       id="path459" />
    <path
       class="cls-2"
       d="m 459.68,124.49 c -0.17,0 -0.27,-0.03 -0.31,-0.1 -0.04,-0.07 -0.06,-0.17 -0.06,-0.33 v -0.31 c 0,-0.16 0.02,-0.26 0.06,-0.31 0.04,-0.05 0.14,-0.08 0.29,-0.08 h 12.27 c 0.24,0 0.39,0.02 0.45,0.07 0.06,0.05 0.1,0.18 0.1,0.42 v 3.9 c 0,0.16 0,0.27 -0.01,0.33 0,0.05 -0.1,0.08 -0.27,0.08 h -0.41 c -0.15,0 -0.24,-0.03 -0.27,-0.1 -0.03,-0.06 -0.05,-0.16 -0.06,-0.29 -0.02,-0.83 -0.13,-1.48 -0.32,-1.96 -0.19,-0.48 -0.51,-0.82 -0.94,-1.02 -0.44,-0.2 -1.03,-0.3 -1.8,-0.3 h -4.45 c -0.18,0 -0.31,0.02 -0.36,0.08 -0.05,0.06 -0.09,0.17 -0.09,0.37 v 4.96 c 0,0.15 0.02,0.26 0.05,0.34 0.03,0.08 0.13,0.11 0.3,0.11 h 1.39 c 0.82,0 1.42,-0.19 1.8,-0.56 0.38,-0.37 0.6,-0.86 0.64,-1.46 0.01,-0.14 0.04,-0.22 0.07,-0.27 0.03,-0.04 0.1,-0.06 0.2,-0.06 h 0.34 c 0.12,0 0.2,0.02 0.25,0.07 0.05,0.04 0.07,0.12 0.07,0.24 v 4.9 c 0,0.16 -0.02,0.27 -0.05,0.33 -0.04,0.06 -0.13,0.08 -0.28,0.08 h -0.34 c -0.06,0 -0.12,-0.02 -0.17,-0.06 -0.05,-0.04 -0.09,-0.14 -0.1,-0.29 -0.03,-0.4 -0.14,-0.76 -0.32,-1.08 -0.18,-0.31 -0.44,-0.56 -0.78,-0.75 -0.35,-0.18 -0.79,-0.28 -1.33,-0.28 h -1.35 c -0.18,0 -0.29,0.03 -0.33,0.09 -0.04,0.06 -0.06,0.18 -0.06,0.36 v 5.49 c 0,0.19 0.02,0.31 0.08,0.37 0.06,0.06 0.17,0.08 0.37,0.08 h 4.25 c 0.9,0 1.59,-0.11 2.09,-0.33 0.5,-0.22 0.85,-0.6 1.05,-1.14 0.2,-0.54 0.31,-1.31 0.33,-2.29 0,-0.14 0.02,-0.22 0.06,-0.27 0.04,-0.04 0.1,-0.06 0.19,-0.06 h 0.39 c 0.13,0 0.23,0.02 0.29,0.05 0.06,0.03 0.1,0.12 0.1,0.25 v 4.55 c 0,0.14 -0.02,0.24 -0.06,0.28 -0.04,0.04 -0.13,0.07 -0.26,0.07 h -12.63 c -0.15,0 -0.25,-0.02 -0.32,-0.06 -0.06,-0.04 -0.09,-0.14 -0.09,-0.31 v -0.47 c 0,-0.14 0.03,-0.22 0.08,-0.25 0.06,-0.03 0.15,-0.04 0.29,-0.04 h 1.33 c 0.25,0 0.41,-0.03 0.46,-0.1 0.05,-0.07 0.09,-0.22 0.09,-0.47 V 124.9 c 0,-0.21 -0.03,-0.33 -0.09,-0.37 -0.06,-0.04 -0.2,-0.06 -0.41,-0.06 h -1.38 z"
       id="path461" />
  </g>
  <g
     id="g495"
     transform="translate(-23.58,-27.459999)">
    <path
       class="cls-2"
       d="m 446.75,104.07 c -3.36,0 -6.22,-1.18 -8.57,-3.53 -2.35,-2.35 -3.53,-5.2 -3.53,-8.53 V 64.42 c 0,-3.36 1.18,-6.22 3.55,-8.57 2.36,-2.36 5.22,-3.53 8.55,-3.53 3.33,0 6.21,1.18 8.55,3.54 2.34,2.37 3.51,5.22 3.51,8.55 v 5.77 h -7.91 v -5.93 c 0,-1.22 -0.43,-2.25 -1.29,-3.11 -0.86,-0.86 -1.89,-1.29 -3.1,-1.29 -1.21,0 -2.24,0.43 -3.09,1.29 -0.84,0.86 -1.27,1.89 -1.27,3.11 v 27.66 c 0,1.21 0.42,2.24 1.27,3.08 0.85,0.85 1.88,1.27 3.09,1.27 1.21,0 2.24,-0.42 3.1,-1.27 0.86,-0.84 1.29,-1.87 1.29,-3.08 v -6.98 h 7.91 v 7.06 c 0,3.36 -1.18,6.21 -3.55,8.55 -2.37,2.34 -5.21,3.5 -8.51,3.5"
       id="path465" />
    <polygon
       class="cls-2"
       points="501.1,52.89 508.72,52.89 508.72,95.85 521.87,95.85 521.87,103.43 501.1,103.43 "
       id="polygon467" />
    <polygon
       class="cls-2"
       points="527.07,52.89 534.69,52.89 534.69,95.85 547.84,95.85 547.84,103.43 527.07,103.43 "
       id="polygon469" />
    <g
       id="g475">
      <polygon
         class="cls-2"
         points="294.43,52.89 302.05,52.89 302.05,95.85 315.2,95.85 315.2,103.43 294.43,103.43 "
         id="polygon471" />
      <polygon
         class="cls-2"
         points="320.4,52.89 328.02,52.89 328.02,95.85 341.16,95.85 341.16,103.43 320.4,103.43 "
         id="polygon473" />
    </g>
    <rect
       class="cls-2"
       x="555.62"
       y="95.849998"
       width="7.5999999"
       height="7.5799999"
       id="rect477" />
    <path
       class="cls-2"
       d="m 483.01,64.22 c 0,-1.21 -0.42,-2.24 -1.27,-3.08 -0.85,-0.85 -1.88,-1.27 -3.08,-1.27 -1.2,0 -2.25,0.42 -3.1,1.27 -0.86,0.85 -1.29,1.88 -1.29,3.08 v 27.67 c 0,1.21 0.43,2.24 1.29,3.08 0.86,0.85 1.89,1.27 3.1,1.27 1.21,0 2.24,-0.42 3.08,-1.27 0.84,-0.85 1.27,-1.88 1.27,-3.08 z m -4.15,-11.94 c 3.36,0 6.22,1.18 8.57,3.55 2.35,2.37 3.53,5.22 3.53,8.55 v 27.59 c 0,3.36 -1.18,6.22 -3.55,8.57 -2.36,2.35 -5.22,3.53 -8.55,3.53 -3.33,0 -6.21,-1.18 -8.55,-3.55 -2.34,-2.36 -3.51,-5.22 -3.51,-8.55 V 64.38 c 0,-3.36 1.18,-6.22 3.55,-8.57 2.36,-2.35 5.21,-3.53 8.51,-3.53"
       id="path479" />
    <path
       class="cls-2"
       d="m 168.58,90.84 c 0.06,3.52 -0.86,6.53 -2.74,9.04 -1.24,1.69 -2.99,2.89 -5.25,3.58 -1.21,0.38 -2.62,0.57 -4.23,0.57 -2.98,0 -5.46,-0.74 -7.42,-2.22 -1.64,-1.21 -2.94,-2.86 -3.89,-4.94 -0.95,-2.08 -1.51,-4.47 -1.67,-7.16 l 7.26,-0.52 c 0.32,2.95 1.1,5.08 2.34,6.41 0.92,1 1.96,1.47 3.15,1.42 1.66,-0.05 2.99,-0.87 3.99,-2.46 0.51,-0.78 0.77,-1.89 0.77,-3.35 0,-2.1 -0.96,-4.19 -2.86,-6.26 -1.5,-1.43 -3.77,-3.56 -6.78,-6.42 -2.52,-2.45 -4.31,-4.64 -5.36,-6.58 -1.13,-2.18 -1.69,-4.55 -1.69,-7.11 0,-4.61 1.54,-8.09 4.64,-10.46 1.91,-1.42 4.27,-2.14 7.1,-2.14 2.83,0 5.04,0.6 6.98,1.81 1.5,0.94 2.72,2.26 3.65,3.95 0.93,1.69 1.48,3.64 1.67,5.85 l -7.3,1.33 c -0.22,-2.07 -0.81,-3.68 -1.78,-4.84 -0.7,-0.83 -1.71,-1.25 -3.02,-1.25 -1.4,0 -2.46,0.62 -3.19,1.85 -0.59,0.99 -0.89,2.23 -0.89,3.71 0,2.32 1,4.67 2.98,7.06 0.75,0.91 1.88,1.99 3.39,3.22 1.78,1.48 2.94,2.51 3.51,3.1 1.88,1.88 3.33,3.74 4.35,5.57 0.48,0.86 0.87,1.66 1.17,2.38 0.72,1.8 1.1,3.41 1.13,4.84"
       id="path481" />
    <rect
       class="cls-2"
       x="175.87"
       y="52.889999"
       width="8"
       height="50.529999"
       id="rect483" />
    <path
       class="cls-2"
       d="m 206.03,104.07 c -3.99,0 -7.28,-1.66 -9.85,-4.99 -1.58,-2.04 -2.25,-4.65 -2.25,-7.23 V 64.63 c 0,-2.66 0.7,-5.34 2.35,-7.42 3.19,-4.03 7.41,-5.55 12.63,-4.61 1.28,0.23 2.52,0.75 3.57,1.51 3.74,2.67 5.6,6.11 5.6,10.32 v 5.77 h -7.91 v -5.93 c 0,-1.22 -0.43,-2.25 -1.29,-3.11 -0.86,-0.86 -1.9,-1.29 -3.11,-1.29 -1.21,0 -2.24,0.43 -3.08,1.29 -0.85,0.86 -1.27,1.89 -1.27,3.11 v 27.66 c 0,1.21 0.42,2.24 1.27,3.08 0.84,0.85 1.87,1.27 3.08,1.27 1.21,0 2.25,-0.42 3.11,-1.27 0.86,-0.84 1.29,-1.87 1.29,-3.08 v -6.98 h 7.91 v 7 c 0,2.58 -0.69,5.19 -2.29,7.21 -2.59,3.27 -5.85,4.91 -9.76,4.91"
       id="path485" />
    <polygon
       class="cls-2"
       points="226.62,103.42 226.62,52.89 234.24,52.89 234.24,74.34 243.44,74.34 243.44,52.89 251.06,52.89 251.06,103.42 243.44,103.42 243.44,82.01 234.24,82.01 234.24,103.42 "
       id="polygon487" />
    <path
       class="cls-2"
       d="m 272.9,64.46 -2.82,19.93 h 5.65 l -2.82,-19.93 z m -4.01,27.35 -1.85,11.62 h -7.94 l 8.59,-50.53 h 10.48 l 8.47,50.53 h -8.01 l -1.78,-11.62 z"
       id="path489" />
    <path
       class="cls-2"
       d="m 359.89,64.46 2.82,19.92 h -5.65 l 2.82,-19.92 z m -5.2,-11.58 -8.59,50.54 h 7.93 l 1.85,-11.62 h 7.96 l 1.78,11.62 h 8.01 l -8.47,-50.54 h -10.48 z"
       id="path491" />
    <path
       class="cls-2"
       d="m 414.64,98.19 c -0.85,-0.75 -1.62,-1.53 -2.32,-2.34 0.5,-1.08 0.92,-2.11 1.25,-3.1 0.33,-0.99 0.6,-1.96 0.81,-2.92 0.21,-0.96 0.38,-1.96 0.52,-2.98 0.14,-1.02 0.24,-2.15 0.32,-3.39 l -0.36,-0.02 h -3.72 c -0.15,1.55 -0.34,3.07 -0.58,4.57 -0.25,1.56 -0.67,3.1 -1.25,4.6 -1.47,-1.74 -2.82,-3.56 -4.05,-5.47 -1.23,-1.91 -2.38,-3.93 -3.42,-6.05 0.93,-0.89 1.83,-1.77 2.72,-2.66 0.89,-0.89 1.68,-1.83 2.38,-2.84 0.69,-1 1.24,-2.08 1.65,-3.24 0.41,-1.16 0.61,-2.47 0.61,-3.94 0,-0.96 -0.18,-1.89 -0.55,-2.78 -0.37,-0.89 -0.9,-1.67 -1.59,-2.34 -0.69,-0.67 -1.51,-1.21 -2.46,-1.59 -0.95,-0.38 -2,-0.58 -3.16,-0.58 -1,0 -1.95,0.18 -2.84,0.55 -0.89,0.37 -1.66,0.92 -2.31,1.65 -0.66,0.74 -1.18,1.65 -1.56,2.75 -0.39,1.1 -0.58,2.4 -0.58,3.91 0,0.85 0.1,1.78 0.32,2.78 0.21,1 0.46,2 0.75,2.98 0.29,0.99 0.61,1.91 0.96,2.78 0.35,0.87 0.65,1.59 0.93,2.17 -0.66,0.73 -1.38,1.52 -2.17,2.34 -0.79,0.83 -1.54,1.77 -2.23,2.81 -0.7,1.04 -1.29,2.18 -1.77,3.42 -0.49,1.24 -0.73,2.63 -0.73,4.17 0,3.28 0.97,5.88 2.9,7.79 1.93,1.91 4.53,2.87 7.82,2.87 1.73,0 3.37,-0.43 4.92,-1.27 1.55,-0.85 2.86,-1.93 3.94,-3.24 0.77,0.81 1.64,1.58 2.61,2.32 0.96,0.73 1.83,1.28 2.61,1.62 l 2.43,-3.13 c -1,-0.7 -1.93,-1.42 -2.78,-2.17 z m -9.62,-30.15 c 0,1.85 -0.42,3.52 -1.27,4.98 -0.85,1.47 -1.99,2.99 -3.42,4.58 -0.47,-1.2 -0.92,-2.42 -1.36,-3.68 -0.44,-1.25 -0.65,-2.69 -0.66,-4.32 -0.05,-6.81 6.72,-5.73 6.72,-1.56 z m -0.35,31.16 c -1.04,0.7 -2.14,1.04 -3.3,1.04 -2.32,0 -4.06,-0.66 -5.24,-1.97 -1.18,-1.31 -1.77,-3.05 -1.77,-5.21 0,-0.81 0.13,-1.63 0.38,-2.46 0.25,-0.83 0.59,-1.63 1.01,-2.4 0.42,-0.77 0.9,-1.52 1.42,-2.23 0.52,-0.71 1.05,-1.34 1.59,-1.88 1.08,2.09 2.35,4.23 3.79,6.43 1.45,2.2 3,4.29 4.66,6.25 -0.65,0.93 -1.5,1.74 -2.55,2.43 z"
       id="path493" />
  </g>
</svg>
